<?xml version="1.0" encoding="UTF-8"?>
<svg version="1.1" xmlns="http://www.w3.org/2000/svg" width="596" height="597">
<path d="M0 0 C0.87240326 0.00215515 1.74480652 0.0043103 2.64364624 0.00653076 C16.73991199 0.06216397 30.48942836 0.70939742 44.375 3.3125 C45.4283252 3.50585938 46.48165039 3.69921875 47.56689453 3.8984375 C107.03084209 15.1537721 165.80171867 48.20166396 202.375 97.3125 C202.86274902 97.96154297 203.35049805 98.61058594 203.85302734 99.27929688 C211.33457035 109.27264504 218.25440033 119.43237715 224.375 130.3125 C224.73513184 130.93850098 225.09526367 131.56450195 225.46630859 132.20947266 C237.90128961 153.92821649 246.88244988 178.2013565 251.63671875 202.78125 C252.22512127 205.37773956 252.22512127 205.37773956 253.95703125 207.34375 C255.73423485 209.81127236 255.62276421 211.33932944 255.375 214.3125 C256.24382813 214.26609375 257.11265625 214.2196875 258.0078125 214.171875 C269.48905081 213.81228364 269.48905081 213.81228364 274.375 218.3125 C275.303125 219.0859375 275.303125 219.0859375 276.25 219.875 C277.375 221.3125 277.375 221.3125 277.375 224.3125 C270.115 224.3125 262.855 224.3125 255.375 224.3125 C255.705 227.921875 256.035 231.53125 256.375 235.25 C257.43978302 247.65400892 257.82094718 259.78256952 256.88671875 272.20703125 C256.18290188 282.66314118 256.08124894 293.13051831 256.02490234 303.60717773 C256.00815548 305.88885564 255.98062864 308.17047735 255.94287109 310.4519043 C255.8882949 313.7846116 255.86628454 317.11612604 255.8515625 320.44921875 C255.82889313 321.46690842 255.80622375 322.48459808 255.78286743 323.53312683 C255.77843631 329.36605831 255.77843631 329.36605831 258.69189453 334.30737305 C259.57731934 334.96906494 260.46274414 335.63075684 261.375 336.3125 C261.96958008 336.83602051 262.56416016 337.35954102 263.17675781 337.89892578 C263.72170898 338.3473584 264.26666016 338.79579102 264.828125 339.2578125 C272.57905579 345.73689986 279.2200073 352.25378091 285.375 360.3125 C286.97507195 362.23258634 288.57923833 364.14926813 290.1875 366.0625 C298.375 376.06785402 298.375 376.06785402 298.375 380.3125 C290.80161211 380.17480204 286.76275459 377.52155626 281.375 372.3125 C275.43254427 365.81553829 270.23975603 358.83216281 265.1328125 351.66796875 C263.07607679 348.9119429 260.91461312 346.6212392 258.375 344.3125 C258.045 343.9825 257.715 343.6525 257.375 343.3125 C255.37509484 343.11260237 255.37509484 343.11260237 253.0625 343.125 C252.28261719 343.11082031 251.50273438 343.09664063 250.69921875 343.08203125 C248.15568784 343.33424692 246.6196492 344.1415799 244.375 345.3125 C243.385 345.3125 242.395 345.3125 241.375 345.3125 C240.7871875 347.1378125 240.7871875 347.1378125 240.1875 349 C239.58677433 350.77200359 238.98227406 352.54272988 238.375 354.3125 C238.06949219 355.23289062 237.76398437 356.15328125 237.44921875 357.1015625 C233.64781457 367.80078735 227.98944971 377.47874199 222.375 387.3125 C223.24898437 386.33023438 223.24898437 386.33023438 224.140625 385.328125 C226.375 383.3125 226.375 383.3125 230.125 383.0625 C231.1975 383.145 232.27 383.2275 233.375 383.3125 C232.0363267 387.99785656 229.50144761 390.84048022 225.375 393.3125 C223.92534843 393.74346393 222.46439616 394.13763608 220.99609375 394.5 C215.6822411 396.20704075 213.76280121 399.01712855 211 403.6875 C210.0735333 405.13915074 209.14111701 406.58701961 208.203125 408.03125 C207.73712891 408.753125 207.27113281 409.475 206.79101562 410.21875 C203.1358887 415.6232963 198.69372415 420.43693885 194.375 425.3125 C193.64925781 426.14910156 192.92351562 426.98570312 192.17578125 427.84765625 C182.45648558 438.89639347 172.08227113 449.37531793 160.375 458.3125 C159.71967285 458.82248535 159.0643457 459.3324707 158.38916016 459.85791016 C146.33515017 469.2092757 133.86970585 477.20196822 120.375 484.3125 C119.48893066 484.78284668 118.60286133 485.25319336 117.68994141 485.73779297 C81.57590491 504.64658815 41.41335197 513.80306773 0.75 513.625 C-0.55661087 513.62226578 -0.55661087 513.62226578 -1.88961792 513.61947632 C-15.98927325 513.57001402 -29.72798399 512.85032653 -43.625 510.3125 C-44.97875732 510.07901855 -44.97875732 510.07901855 -46.35986328 509.84082031 C-90.22836051 502.08976508 -131.91162461 482.39432542 -165.625 453.3125 C-166.37007812 452.67828125 -167.11515625 452.0440625 -167.8828125 451.390625 C-181.38298921 439.58369079 -194.08658155 426.84310083 -204.625 412.3125 C-205.10098633 411.67022461 -205.57697266 411.02794922 -206.06738281 410.36621094 C-224.08943839 386.02062709 -238.58494862 358.61230262 -246.625 329.3125 C-246.955 331.2925 -247.285 333.2725 -247.625 335.3125 C-256.96779656 334.42270985 -263.17040777 327.6161755 -269.625 321.3125 C-271.98965248 317.76552128 -271.87319777 316.28254132 -271.86791992 312.07885742 C-271.87099655 310.7886821 -271.87407318 309.49850677 -271.87724304 308.16923523 C-271.87033103 306.75214467 -271.86306304 305.33505581 -271.85546875 303.91796875 C-271.85427432 302.45038392 -271.85382434 300.98279831 -271.8540802 299.51521301 C-271.852513 296.42407497 -271.84422219 293.33305231 -271.83081055 290.24194336 C-271.81410077 286.34796389 -271.81007141 282.45411336 -271.81063652 278.56010246 C-271.80997957 261.78835131 -271.61879611 245.06065195 -270.625 228.3125 C-273.3429231 227.21587009 -276.05811679 226.15664157 -278.81640625 225.1640625 C-279.92886719 224.75929687 -281.04132813 224.35453125 -282.1875 223.9375 C-283.30253906 223.53789062 -284.41757812 223.13828125 -285.56640625 222.7265625 C-288.69714731 221.27914454 -290.49573237 220.00922527 -292.625 217.3125 C-292.625 216.3225 -292.625 215.3325 -292.625 214.3125 C-291.305 213.9825 -289.985 213.6525 -288.625 213.3125 C-289.10710937 212.3225 -289.58921875 211.3325 -290.0859375 210.3125 C-290.72434623 208.97935235 -291.36234513 207.64600839 -292 206.3125 C-292.31710937 205.66410156 -292.63421875 205.01570312 -292.9609375 204.34765625 C-296.9184298 196.02043286 -297.96912094 188.63287045 -297.9375 179.4375 C-297.95361328 178.50808594 -297.96972656 177.57867187 -297.98632812 176.62109375 C-297.99642857 162.13704985 -291.91305747 150.01653723 -282.0390625 139.59765625 C-268.18934485 126.48748663 -251.46239375 121.71508581 -232.80859375 122.140625 C-228.37234566 122.29534324 -224.01768879 122.66173129 -219.625 123.3125 C-219.25890625 122.7040625 -218.8928125 122.095625 -218.515625 121.46875 C-213.08444117 112.67540476 -206.97447152 104.45950089 -200.625 96.3125 C-200.20299316 95.76899902 -199.78098633 95.22549805 -199.34619141 94.66552734 C-186.57854768 78.42193022 -171.3827077 63.39505011 -154.625 51.3125 C-153.52479678 50.48472493 -152.42585344 49.65527288 -151.328125 48.82421875 C-120.94274406 26.1244222 -84.76115159 11.241792 -47.6875 4 C-46.55622681 3.77896606 -46.55622681 3.77896606 -45.40209961 3.5534668 C-30.31804811 0.82558504 -15.2992446 -0.06861882 0 0 Z M-258.625 158.3125 C-269.52494756 169.48256287 -274.00686697 180.46510875 -273.875 195.9375 C-273.88273437 196.85273438 -273.89046875 197.76796875 -273.8984375 198.7109375 C-273.88418058 203.6438332 -273.56064118 207.6884683 -271.625 212.3125 C-271.295 212.3125 -270.965 212.3125 -270.625 212.3125 C-270.625 206.0425 -270.625 199.7725 -270.625 193.3125 C-261.665 196.6725 -261.665 196.6725 -258.375 199.375 C-255.88449026 201.39725275 -253.54221268 202.96361184 -250.625 204.3125 C-250.34527344 203.11238281 -250.06554687 201.91226563 -249.77734375 200.67578125 C-245.12544124 181.15521802 -238.70331454 162.67230578 -230.625 144.3125 C-240.80279206 144.3125 -251.06135498 152.05459932 -258.625 158.3125 Z " fill="#F08B35" transform="translate(297.625,-0.3125)"/>
<path d="M0 0 C0.87240326 0.00215515 1.74480652 0.0043103 2.64364624 0.00653076 C16.73991199 0.06216397 30.48942836 0.70939742 44.375 3.3125 C45.4283252 3.50585938 46.48165039 3.69921875 47.56689453 3.8984375 C107.03084209 15.1537721 165.80171867 48.20166396 202.375 97.3125 C202.86274902 97.96154297 203.35049805 98.61058594 203.85302734 99.27929688 C211.33457035 109.27264504 218.25440033 119.43237715 224.375 130.3125 C224.73513184 130.93850098 225.09526367 131.56450195 225.46630859 132.20947266 C236.62523667 151.69948233 252.82479511 182.11577822 251.375 205.3125 C250.4675 204.44625 249.56 203.58 248.625 202.6875 C243.76148717 198.47579817 238.16458251 196.04466253 232.375 193.3125 C232.375 200.2425 232.375 207.1725 232.375 214.3125 C221.815 214.3125 211.255 214.3125 200.375 214.3125 C201.365 213.3225 202.355 212.3325 203.375 211.3125 C198.17385793 204.90859382 191.78661014 197.2536408 183.375 195.3125 C179.74850049 195.22333846 179.74850049 195.22333846 176.375 196.3125 C172.2602592 202.19857602 172.2602592 202.19857602 173.375 214.3125 C163.805 214.3125 154.235 214.3125 144.375 214.3125 C143.715 212.0025 143.055 209.6925 142.375 207.3125 C137.11102617 201.00009985 129.37881146 195.31345286 121.375 193.3125 C121.375 200.2425 121.375 207.1725 121.375 214.3125 C108.81244607 215.39964409 108.81244607 215.39964409 105.05078125 212.5546875 C103.78704535 210.99157601 102.56110184 209.39729025 101.37109375 207.77734375 C96.57626506 201.8565279 89.88423199 198.19334833 82.375 197.3125 C79.7178556 201.15218051 78.94259552 203.98226147 78.6875 208.625 C78.584375 210.501875 78.48125 212.37875 78.375 214.3125 C72.765 214.3125 67.155 214.3125 61.375 214.3125 C61.065625 213.19875 60.75625 212.085 60.4375 210.9375 C56.55363069 200.66521014 45.76705588 191.42153546 36.07421875 186.70703125 C33.19582962 185.49952841 30.31394243 184.36284369 27.375 183.3125 C28.34060353 187.51859959 28.34060353 187.51859959 31.1875 190.375 C31.909375 190.684375 32.63125 190.99375 33.375 191.3125 C36.90379045 194.42119635 38.97825012 196.83020266 40.375 201.3125 C40.6300648 205.66390556 40.46315924 209.9486174 40.375 214.3125 C32.125 214.3125 23.875 214.3125 15.375 214.3125 C14.385 212.0025 13.395 209.6925 12.375 207.3125 C9.67553489 203.3379684 6.8371713 201.05225934 2.75 198.5625 C1.78835938 197.96953125 0.82671875 197.3765625 -0.1640625 196.765625 C-3.53171775 194.77710476 -5.3164595 194.18908852 -9.203125 194.13671875 C-10.11707031 194.11287109 -11.03101563 194.08902344 -11.97265625 194.06445312 C-13.89170833 194.02183622 -15.81104455 193.99039626 -17.73046875 193.97070312 C-25.14462513 193.74713459 -28.98379478 192.01659106 -34.25 186.625 C-42.33430718 176.25317181 -44.13088351 162.05387912 -42.625 149.3125 C-39.20669473 131.2498642 -29.37531919 116.97384551 -14.61328125 106.29296875 C-10.75109157 103.73332147 -7.01505447 101.78126129 -2.625 100.3125 C-1.65626953 99.97798828 -1.65626953 99.97798828 -0.66796875 99.63671875 C11.47209109 96.22450308 25.48694651 97.84131126 37.375 101.3125 C38.16648437 101.52132812 38.95796875 101.73015625 39.7734375 101.9453125 C46.00002832 104.21169613 47.73273816 109.325852 50.54296875 114.984375 C55.52240508 124.03017405 63.25380262 128.9650134 72.375 133.3125 C66.88943884 113.62901585 51.98848127 101.79420044 34.87524414 92.09033203 C17.57329294 82.60703369 -4.12343515 77.10615363 -23.73828125 82.18359375 C-30.74211157 84.74187907 -36.86118356 88.61340276 -42.625 93.3125 C-43.54345703 94.06080078 -43.54345703 94.06080078 -44.48046875 94.82421875 C-56.15576414 105.43083722 -63.83397804 121.88432806 -64.828125 137.50390625 C-65.06547927 154.57363399 -60.70077383 167.54852292 -48.890625 179.984375 C-48.14296875 180.75265625 -47.3953125 181.5209375 -46.625 182.3125 C-46.02171875 182.97765625 -45.4184375 183.6428125 -44.796875 184.328125 C-34.35269212 195.49885974 -21.39203616 202.99883953 -7.625 209.3125 C-7.625 210.9625 -7.625 212.6125 -7.625 214.3125 C-13.565 214.3125 -19.505 214.3125 -25.625 214.3125 C-26.615 210.8475 -26.615 210.8475 -27.625 207.3125 C-32.88897383 201.00009985 -40.62118854 195.31345286 -48.625 193.3125 C-48.625 200.2425 -48.625 207.1725 -48.625 214.3125 C-59.185 214.3125 -69.745 214.3125 -80.625 214.3125 C-80.295 213.6525 -79.965 212.9925 -79.625 212.3125 C-78.635 212.3125 -77.645 212.3125 -76.625 212.3125 C-80.64918709 204.01261414 -89.10481661 198.32861712 -97.625 195.3125 C-100.15987844 194.72384411 -100.15987844 194.72384411 -102.625 195.3125 C-108.08262178 201.06733985 -108.08262178 201.06733985 -106.625 214.3125 C-116.195 214.3125 -125.765 214.3125 -135.625 214.3125 C-136.615 212.0025 -137.605 209.6925 -138.625 207.3125 C-140.87360702 204.71982957 -140.87360702 204.71982957 -143.5 202.5625 C-144.34304687 201.82515625 -145.18609375 201.0878125 -146.0546875 200.328125 C-148.52851027 198.24859396 -148.52851027 198.24859396 -151.29296875 196.984375 C-154.61883903 194.59999899 -154.97307134 192.20730722 -156.0625 188.3125 C-161.18476025 171.54910298 -172.41469694 154.8072651 -186.625 144.3125 C-187.19057617 143.89307129 -187.75615234 143.47364258 -188.33886719 143.04150391 C-197.99882021 135.95142551 -208.16985196 129.13088268 -219.625 125.3125 C-215.58540942 114.43667922 -207.80478913 105.28926307 -200.625 96.3125 C-199.46291016 94.83910156 -199.46291016 94.83910156 -198.27734375 93.3359375 C-185.53726262 77.70864305 -170.99304718 63.11409924 -154.625 51.3125 C-153.52479678 50.48472493 -152.42585344 49.65527288 -151.328125 48.82421875 C-120.94274406 26.1244222 -84.76115159 11.241792 -47.6875 4 C-46.55622681 3.77896606 -46.55622681 3.77896606 -45.40209961 3.5534668 C-30.31804811 0.82558504 -15.2992446 -0.06861882 0 0 Z " fill="#F08B35" transform="translate(297.625,-0.3125)"/>
<path d="M0 0 C1.06516846 0.00942627 2.13033691 0.01885254 3.2277832 0.02856445 C10.59348921 0.1702235 17.23157555 0.82208271 24.1875 3.375 C25.18910156 3.70371094 26.19070313 4.03242187 27.22265625 4.37109375 C40.98997018 9.20554542 53.39100998 16.57650486 64.1875 26.375 C64.84105469 26.94734375 65.49460937 27.5196875 66.16796875 28.109375 C72.03193683 33.5461666 79.93643332 42.85153303 80.3125 51.125 C80.27125 51.8675 80.23 52.61 80.1875 53.375 C71.44550499 51.18950125 63.69106741 44.35004754 58.1875 37.375 C57.20416221 35.3129062 56.26782321 33.22786727 55.375 31.125 C53.23360791 26.5172349 51.73795964 24.54091482 46.9375 22.75 C45.0327434 22.24444798 43.11531147 21.78392971 41.1875 21.375 C40.41664063 21.15585938 39.64578125 20.93671875 38.8515625 20.7109375 C24.60774859 17.06491005 8.75071226 18.50654874 -4.0625 25.625 C-17.88452624 34.28848068 -26.47691984 45.95113802 -31.8125 61.375 C-32.17988281 62.365 -32.17988281 62.365 -32.5546875 63.375 C-36.4145515 75.64196503 -34.28487271 91.0665069 -28.5 102.375 C-25.79644294 106.83177285 -22.52018353 110.02115823 -17.8125 112.375 C-16.33516151 112.45649213 -14.85458173 112.48327996 -13.375 112.48046875 C5.43286232 112.70504024 5.43286232 112.70504024 13.1875 119.375 C13.77402344 119.80296875 14.36054688 120.2309375 14.96484375 120.671875 C18.56423879 123.38242188 21.01533675 126.4483972 23.1875 130.375 C23.1875 131.695 23.1875 133.015 23.1875 134.375 C31.4375 134.375 39.6875 134.375 48.1875 134.375 C47.93627283 123.8836507 47.93627283 123.8836507 44.1875 114.375 C42.46507822 112.92033288 40.73209694 111.69040975 38.80859375 110.515625 C37.1875 109.375 37.1875 109.375 35.1875 106.375 C35.1875 105.385 35.1875 104.395 35.1875 103.375 C46.45400115 103.96797374 55.76813723 113.67847713 63.1875 121.375 C69.1875 128.74067164 69.1875 128.74067164 69.1875 134.375 C74.7975 134.375 80.4075 134.375 86.1875 134.375 C86.0946875 131.5596875 86.0946875 131.5596875 86 128.6875 C85.84535999 123.99675309 86.12786964 121.05850292 89.1875 117.375 C92.14586708 116.18779233 93.53610637 116.12320078 96.51171875 117.2734375 C111.96394231 126.92788462 111.96394231 126.92788462 115.1875 133.375 C118.46305608 133.84501033 118.46305608 133.84501033 122.25 134 C124.539375 134.12375 126.82875 134.2475 129.1875 134.375 C129.1875 127.445 129.1875 120.515 129.1875 113.375 C134.95865899 114.33685983 137.4949816 115.63466971 141.8125 119.125 C142.37195313 119.55554688 142.93140625 119.98609375 143.5078125 120.4296875 C146.87987155 123.0859793 149.83989704 125.73335249 152.1875 129.375 C152.1875 131.025 152.1875 132.675 152.1875 134.375 C161.7575 134.375 171.3275 134.375 181.1875 134.375 C180.8575 133.055 180.5275 131.735 180.1875 130.375 C179.6671895 125.68367581 179.80626889 122.22895768 181.75 117.875 C184.1875 115.375 184.1875 115.375 187.3125 114.1875 C196.79900785 114.64652457 202.88806875 120.53564624 209.25390625 127.0703125 C211.1875 129.375 211.1875 129.375 212.1875 132.375 C211.1975 132.705 210.2075 133.035 209.1875 133.375 C219.4175 133.705 229.6475 134.035 240.1875 134.375 C240.1875 127.445 240.1875 120.515 240.1875 113.375 C247.09102693 115.67617564 251.00786613 117.13763224 256.1875 121.625 C257.04408203 122.30369141 257.04408203 122.30369141 257.91796875 122.99609375 C261.04310422 125.64614924 262.14651478 127.19422588 263.0625 131.234375 C263.124375 132.78898437 263.124375 132.78898437 263.1875 134.375 C264.05632813 134.32859375 264.92515625 134.2821875 265.8203125 134.234375 C277.30155081 133.87478364 277.30155081 133.87478364 282.1875 138.375 C283.115625 139.1484375 283.115625 139.1484375 284.0625 139.9375 C285.1875 141.375 285.1875 141.375 285.1875 144.375 C277.9275 144.375 270.6675 144.375 263.1875 144.375 C263.5175 147.984375 263.8475 151.59375 264.1875 155.3125 C265.25228302 167.71650892 265.63344718 179.84506952 264.69921875 192.26953125 C263.99540188 202.72564118 263.89374894 213.19301831 263.83740234 223.66967773 C263.82065548 225.95135564 263.79312864 228.23297735 263.75537109 230.5144043 C263.7007949 233.8471116 263.67878454 237.17862604 263.6640625 240.51171875 C263.64139313 241.52940842 263.61872375 242.54709808 263.59536743 243.59562683 C263.59093631 249.42855831 263.59093631 249.42855831 266.50439453 254.36987305 C267.38981934 255.03156494 268.27524414 255.69325684 269.1875 256.375 C269.78208008 256.89852051 270.37666016 257.42204102 270.98925781 257.96142578 C271.53420898 258.4098584 272.07916016 258.85829102 272.640625 259.3203125 C280.39155579 265.79939986 287.0325073 272.31628091 293.1875 280.375 C294.78757195 282.29508634 296.39173833 284.21176813 298 286.125 C306.1875 296.13035402 306.1875 296.13035402 306.1875 300.375 C298.61411211 300.23730204 294.57525459 297.58405626 289.1875 292.375 C283.24504427 285.87803829 278.05225603 278.89466281 272.9453125 271.73046875 C270.88857679 268.9744429 268.72711312 266.6837392 266.1875 264.375 C265.8575 264.045 265.5275 263.715 265.1875 263.375 C263.18759484 263.17510237 263.18759484 263.17510237 260.875 263.1875 C260.09511719 263.17332031 259.31523438 263.15914063 258.51171875 263.14453125 C256.16253197 263.22093376 256.16253197 263.22093376 254.26953125 264.44921875 C251.17695316 265.82434259 249.41305377 265.31196556 246.1875 264.375 C243.84096967 262.87919255 241.77343067 261.42092169 239.625 259.6875 C239.07392578 259.26533203 238.52285156 258.84316406 237.95507812 258.40820312 C234.15288642 255.4178673 231.17613531 252.17618793 228.1875 248.375 C231.03509727 245.33101671 232.88596555 243.48501599 237.23046875 243.27734375 C238.29201172 243.29474609 238.29201172 243.29474609 239.375 243.3125 C240.633125 243.333125 241.89125 243.35375 243.1875 243.375 C242.69952438 242.82281799 242.21154877 242.27063599 241.70878601 241.70172119 C239.88870811 238.91801464 239.82290736 237.44572285 239.84692383 234.14746094 C239.84726372 232.58629547 239.84726372 232.58629547 239.84761047 230.99359131 C239.86309433 229.87679993 239.87857819 228.76000854 239.89453125 227.609375 C239.89877609 226.46084045 239.90302094 225.31230591 239.90739441 224.12896729 C239.92418667 220.4607397 239.96184102 216.79306153 240 213.125 C240.01504608 210.63802877 240.02873461 208.15104892 240.04101562 205.6640625 C240.07409204 199.56752088 240.12429744 193.47129969 240.1875 187.375 C239.43381638 187.51203339 238.68013275 187.64906677 237.90361023 187.79025269 C235.91362 188.15206909 233.92362976 188.5138855 231.93363953 188.8757019 C230.57430046 189.12285446 230.57430046 189.12285446 229.1875 189.375 C226.09375 189.9375 226.09375 189.9375 223 190.5 C222.07832031 190.66757812 221.15664063 190.83515625 220.20703125 191.0078125 C219.54058594 191.12898437 218.87414062 191.25015625 218.1875 191.375 C218.5175 192.365 218.8475 193.355 219.1875 194.375 C219.36310807 197.28548781 219.46468869 200.15049369 219.5 203.0625 C219.52900391 203.84044922 219.55800781 204.61839844 219.58789062 205.41992188 C219.66140078 212.19981996 217.90412462 217.35461777 213.3359375 222.43359375 C212.75070312 222.88863281 212.16546875 223.34367188 211.5625 223.8125 C210.97210938 224.28558594 210.38171875 224.75867188 209.7734375 225.24609375 C205.32894582 228.40978364 200.43976272 228.07165903 195.1875 227.375 C184.26555694 223.07191867 174.99458514 213.95058731 170.1875 203.375 C169.8575 202.715 169.5275 202.055 169.1875 201.375 C168.6770175 196.25343785 168.54488456 191.79410911 170.6875 187.0625 C176.12685169 181.21519693 182.53182605 176.82136198 190.1875 174.375 C191.5075 174.375 192.8275 174.375 194.1875 174.375 C192.71386923 167.43342346 190.75050517 160.83291556 188.125 154.25 C187.8676709 153.59894287 187.6103418 152.94788574 187.34521484 152.27709961 C186.21313237 149.50836396 185.32396219 147.51146219 183.1875 145.375 C172.9575 145.045 162.7275 144.715 152.1875 144.375 C152.1875 181.005 152.1875 217.635 152.1875 255.375 C147.05710013 254.34892003 145.22618555 253.23643632 141.1875 250.125 C140.176875 249.35671875 139.16625 248.5884375 138.125 247.796875 C130.59092298 241.58526895 130.59092298 241.58526895 129.1875 237.375 C129.09580466 234.40776394 129.06155358 231.46442724 129.07397461 228.49731445 C129.07382858 227.58979431 129.07368256 226.68227417 129.0735321 225.74725342 C129.07422939 222.74423848 129.08201324 219.74128537 129.08984375 216.73828125 C129.09170858 214.65748631 129.09313218 212.57669092 129.09413147 210.49589539 C129.09795151 205.0164977 129.10777745 199.53712648 129.11883545 194.05773926 C129.12906057 188.46753294 129.13363145 182.87732235 129.13867188 177.28710938 C129.14940015 166.31639275 129.16699283 155.34570271 129.1875 144.375 C122.5875 144.375 115.9875 144.375 109.1875 144.375 C110.10118309 159.53732495 110.10118309 159.53732495 112.8125 174.4375 C116.89443964 191.51119675 115.50971914 211.8177766 107.2578125 227.3203125 C103.53267865 232.81664207 98.69306951 236.0738861 92.1875 237.375 C81.66561024 238.6671619 73.95514518 232.2133745 66 226.0625 C53.20452925 215.81923949 43.81027198 202.93863204 41.1875 186.375 C39.86865547 172.90792556 42.49503808 158.29861674 46.1875 145.375 C38.5975 145.045 31.0075 144.715 23.1875 144.375 C23.1875 186.945 23.1875 229.515 23.1875 273.375 C20.8775 274.035 18.5675 274.695 16.1875 275.375 C10.70432305 278.86178534 6.90931806 283.02579589 5.1875 289.375 C4.04190613 297.0817224 5.84872121 302.95817453 10.1875 309.375 C13.87835885 313.61340384 17.92303699 315.11880157 23.1875 317.375 C23.1875 331.235 23.1875 345.095 23.1875 359.375 C18.23230036 357.72326679 15.70150084 356.60089717 11.6875 353.625 C10.7903125 352.97015625 9.893125 352.3153125 8.96875 351.640625 C8.0509375 350.89296875 7.133125 350.1453125 6.1875 349.375 C5.67311571 348.96488013 5.15873143 348.55476026 4.62875974 348.13221252 C1.40563122 345.29596267 0.28511628 343.88353702 -0.55078697 339.52885628 C-0.57580187 338.05232661 -0.56811995 336.57501128 -0.5340271 335.09866333 C-0.53915365 334.28090986 -0.5442802 333.46315639 -0.5495621 332.62062252 C-0.55942274 329.88836161 -0.52648617 327.15832569 -0.49365234 324.42626953 C-0.49195943 322.46481885 -0.49291082 320.50336436 -0.49630737 318.54191589 C-0.49802874 313.22185943 -0.46275537 307.90261479 -0.42086363 302.58274698 C-0.38335343 297.02142358 -0.37983102 291.46008151 -0.37271118 285.89865112 C-0.35406325 275.36950438 -0.30482666 264.84073147 -0.24461424 254.31174934 C-0.1775477 242.32398303 -0.14455969 230.33619885 -0.11444163 218.34829164 C-0.05172778 193.69031348 0.05501521 169.03269345 0.1875 144.375 C-5.7525 144.375 -11.6925 144.375 -17.8125 144.375 C-17.8125 181.005 -17.8125 217.635 -17.8125 255.375 C-27.26284235 253.48493153 -34.12398248 246.94229394 -39.8125 239.375 C-41.04330509 236.91338983 -40.93293977 235.31003007 -40.92602539 232.55810547 C-40.92594986 231.55721893 -40.92587433 230.5563324 -40.92579651 229.52511597 C-40.92063522 228.44174957 -40.91547394 227.35838318 -40.91015625 226.2421875 C-40.90803383 224.58172897 -40.90803383 224.58172897 -40.90586853 222.88772583 C-40.90025772 219.34179007 -40.88770337 215.79591677 -40.875 212.25 C-40.86998639 209.85026133 -40.86542325 207.45052167 -40.86132812 205.05078125 C-40.85028478 199.15882999 -40.83301286 193.2669256 -40.8125 187.375 C-50.7125 189.355 -50.7125 189.355 -60.8125 191.375 C-60.709375 194.30375 -60.60625 197.2325 -60.5 200.25 C-60.40212175 209.56658849 -61.65345451 215.57549313 -67.8671875 222.74609375 C-71.08704331 225.96037887 -74.0541214 228.8357844 -78.75 229.1875 C-89.89398617 227.88552934 -100.16143899 218.98870412 -106.875 210.5625 C-111.75091016 204.08040767 -111.7875509 197.2720339 -110.8125 189.375 C-107.54805535 181.19406381 -97.80075272 178.11988524 -90.28515625 174.84375 C-88.56619141 174.11671875 -88.56619141 174.11671875 -86.8125 173.375 C-88.86290434 166.16974031 -91.27217702 159.12829079 -93.83056641 152.09008789 C-95.8125 146.58450865 -95.8125 146.58450865 -95.8125 144.375 C-106.3725 144.375 -116.9325 144.375 -127.8125 144.375 C-127.8125 181.005 -127.8125 217.635 -127.8125 255.375 C-136.56548219 253.62440356 -143.32208527 247.31303901 -149.8125 241.375 C-151.13107548 238.73784904 -150.93241704 236.7766736 -150.92602539 233.82373047 C-150.92594986 232.66267792 -150.92587433 231.50162537 -150.92579651 230.3053894 C-150.92063522 229.04703278 -150.91547394 227.78867615 -150.91015625 226.4921875 C-150.90803383 224.56537643 -150.90803383 224.56537643 -150.90586853 222.59963989 C-150.90204911 219.18343158 -150.89222373 215.76726574 -150.88116455 212.35107422 C-150.87093807 208.86556574 -150.86636826 205.3800504 -150.86132812 201.89453125 C-150.85060096 195.05467005 -150.83353142 188.21483706 -150.8125 181.375 C-153.79108727 181.03562892 -156.77019685 180.70337741 -159.75 180.375 C-160.99620117 180.23191406 -160.99620117 180.23191406 -162.26757812 180.0859375 C-167.81834043 179.48118519 -173.228851 179.28485027 -178.8125 179.375 C-178.26980469 179.88289062 -177.72710937 180.39078125 -177.16796875 180.9140625 C-171.91760205 185.96576668 -167.78348821 190.02656668 -167.4375 197.625 C-167.74952616 205.68341469 -170.12587392 213.50141635 -175.8125 219.375 C-181.76664322 224.11401195 -187.3780643 224.16123885 -194.8125 223.375 C-205.95782541 221.33597954 -215.23621728 210.96033039 -221.8125 202.375 C-225.64456864 196.3325198 -226.87934991 190.46193152 -225.8125 183.375 C-223.56014614 175.03622926 -219.35742841 167.20195704 -211.80078125 162.66796875 C-206.42436941 159.79934815 -201.67173034 159.76259551 -195.6875 160 C-194.26244141 160.02126953 -194.26244141 160.02126953 -192.80859375 160.04296875 C-187.72330608 160.1487653 -182.84794442 160.64471332 -177.8125 161.375 C-175.04015983 161.51189719 -172.2752329 161.51758265 -169.5 161.5 C-168.38830444 161.49709961 -168.38830444 161.49709961 -167.25415039 161.49414062 C-161.72013552 161.45068452 -156.30629668 161.07262498 -150.8125 160.375 C-150.8125 155.095 -150.8125 149.815 -150.8125 144.375 C-180.1825 144.375 -209.5525 144.375 -239.8125 144.375 C-239.8125 181.005 -239.8125 217.635 -239.8125 255.375 C-249.38483831 253.77961028 -254.98644296 248.04145499 -261.8125 241.375 C-264.17715248 237.82802128 -264.06069777 236.34504132 -264.05541992 232.14135742 C-264.05849655 230.8511821 -264.06157318 229.56100677 -264.06474304 228.23173523 C-264.05783103 226.81464467 -264.05056304 225.39755581 -264.04296875 223.98046875 C-264.04177432 222.51288392 -264.04132434 221.04529831 -264.0415802 219.57771301 C-264.040013 216.48657497 -264.03172219 213.39555231 -264.01831055 210.30444336 C-264.00160077 206.41046389 -263.99757141 202.51661336 -263.99813652 198.62260246 C-263.99747957 181.85085131 -263.80629611 165.12315195 -262.8125 148.375 C-265.5304231 147.27837009 -268.24561679 146.21914157 -271.00390625 145.2265625 C-272.11636719 144.82179687 -273.22882813 144.41703125 -274.375 144 C-275.49003906 143.60039062 -276.60507812 143.20078125 -277.75390625 142.7890625 C-280.88464731 141.34164454 -282.68323237 140.07172527 -284.8125 137.375 C-284.8125 136.385 -284.8125 135.395 -284.8125 134.375 C-283.4925 134.045 -282.1725 133.715 -280.8125 133.375 C-281.29460937 132.385 -281.77671875 131.395 -282.2734375 130.375 C-282.91184623 129.04185235 -283.54984513 127.70850839 -284.1875 126.375 C-284.50460937 125.72660156 -284.82171875 125.07820313 -285.1484375 124.41015625 C-289.1059298 116.08293286 -290.15662094 108.69537045 -290.125 99.5 C-290.14111328 98.57058594 -290.15722656 97.64117187 -290.17382812 96.68359375 C-290.18392857 82.19954985 -284.10055747 70.07903723 -274.2265625 59.66015625 C-261.28580049 47.4104058 -245.0697006 41.81857325 -227.45141602 42.02807617 C-208.37463401 42.63269988 -193.01452717 52.2888216 -178.54150391 63.97900391 C-177.05805092 65.17674242 -175.55253997 66.34707072 -174.04296875 67.51171875 C-161.47202307 77.84873224 -149.39415489 94.80326688 -146.75 111.0625 C-146.67652344 111.85011719 -146.60304687 112.63773437 -146.52734375 113.44921875 C-146.17349609 114.40248047 -146.17349609 114.40248047 -145.8125 115.375 C-144.16597889 116.08997583 -142.49392854 116.74649361 -140.8125 117.375 C-138.62329381 119.07524643 -136.59945752 120.76278149 -134.5625 122.625 C-134.02109375 123.09035156 -133.4796875 123.55570312 -132.921875 124.03515625 C-128.94326513 127.6457447 -128.76386106 128.66683363 -127.8125 134.375 C-118.2425 134.375 -108.6725 134.375 -98.8125 134.375 C-99.1425 133.715 -99.4725 133.055 -99.8125 132.375 C-100.9959697 121.08131773 -100.9959697 121.08131773 -97.8125 116.5625 C-94.8125 114.375 -94.8125 114.375 -91.1875 114.0625 C-82.82136698 115.84959458 -73.81336563 122.47960848 -68.8125 129.375 C-68.8125 130.365 -68.8125 131.355 -68.8125 132.375 C-69.8025 132.705 -70.7925 133.035 -71.8125 133.375 C-61.5825 133.705 -51.3525 134.035 -40.8125 134.375 C-40.8125 127.445 -40.8125 120.515 -40.8125 113.375 C-35.04134101 114.33685983 -32.5050184 115.63466971 -28.1875 119.125 C-27.62804687 119.55554688 -27.06859375 119.98609375 -26.4921875 120.4296875 C-23.12012845 123.0859793 -20.16010296 125.73335249 -17.8125 129.375 C-17.8125 131.025 -17.8125 132.675 -17.8125 134.375 C-11.8725 134.375 -5.9325 134.375 0.1875 134.375 C0.1875 132.725 0.1875 131.075 0.1875 129.375 C-0.50472656 129.27960938 -1.19695312 129.18421875 -1.91015625 129.0859375 C-19.85007218 124.69150318 -40.8442137 105.29392862 -50.47705078 90.06762695 C-58.61856687 76.09880615 -59.96428076 60.20642292 -55.9140625 44.66796875 C-52.44385377 34.29425968 -47.09907014 25.477666 -39.8125 17.375 C-39.00039063 16.42367187 -39.00039063 16.42367187 -38.171875 15.453125 C-28.02821068 4.3246389 -14.64200035 -0.19968987 0 0 Z M-250.8125 78.375 C-261.71244756 89.54506287 -266.19436697 100.52760875 -266.0625 116 C-266.07023437 116.91523438 -266.07796875 117.83046875 -266.0859375 118.7734375 C-266.07168058 123.7063332 -265.74814118 127.7509683 -263.8125 132.375 C-263.4825 132.375 -263.1525 132.375 -262.8125 132.375 C-262.8125 126.105 -262.8125 119.835 -262.8125 113.375 C-253.8525 116.735 -253.8525 116.735 -250.5625 119.4375 C-248.07199026 121.45975275 -245.72971268 123.02611184 -242.8125 124.375 C-242.53277344 123.17488281 -242.25304687 121.97476563 -241.96484375 120.73828125 C-237.31294124 101.21771802 -230.89081454 82.73480578 -222.8125 64.375 C-232.99029206 64.375 -243.24885498 72.11709932 -250.8125 78.375 Z " fill="#FDFCFB" transform="translate(289.8125,79.625)"/>
<path d="M0 0 C0.99064453 -0.02449219 1.98128906 -0.04898438 3.00195312 -0.07421875 C10.58536023 -0.10405511 18.09705503 0.88750745 23.83398438 6.27246094 C33.45957549 17.33681275 38.81328036 32.92142207 37.8125 47.375 C37.28521752 50.09777763 36.55129975 52.6968509 35.8125 55.375 C35.37497682 58.35392033 35.37497682 58.35392033 35.8125 61.375 C37.59850355 63.67020465 37.59850355 63.67020465 40.0625 65.5 C43.18551069 68.0412734 45.94120004 70.50370004 48.8125 73.375 C21.7525 73.375 -5.3075 73.375 -33.1875 73.375 C-34.1775 70.405 -34.1775 70.405 -35.1875 67.375 C-35.76455688 66.32397095 -35.76455688 66.32397095 -36.35327148 65.25170898 C-37.39958242 62.89789214 -37.16989503 61.82042592 -36.53515625 59.34765625 C-36.33954102 58.56648438 -36.14392578 57.7853125 -35.94238281 56.98046875 C-35.71389648 56.14128906 -35.48541016 55.30210937 -35.25 54.4375 C-35.01764648 53.55578125 -34.78529297 52.6740625 -34.54589844 51.765625 C-30.8034024 37.89435529 -26.27406444 24.37610827 -20.5625 11.1875 C-20.02254395 9.90359375 -20.02254395 9.90359375 -19.47167969 8.59375 C-19.11750977 7.80613281 -18.76333984 7.01851562 -18.3984375 6.20703125 C-17.93896729 5.16639526 -17.93896729 5.16639526 -17.47021484 4.10473633 C-13.57665136 -1.14571995 -5.81909691 0.00742705 0 0 Z " fill="#F08B35" transform="translate(83.1875,140.625)"/>
<path d="M0 0 C3.99996286 1.33332095 4.83782337 3.4957827 7 7 C7.61875 6.175 8.2375 5.35 8.875 4.5 C11.41294471 1.9692859 13.3854096 1.53572807 16.9375 1.375 C22.20005656 1.62634599 24.46203677 3.18988575 28 7 C30.10310181 11.20620362 30 16.3654401 30 21 C28.75 24.6875 28.75 24.6875 27 27 C26.01 27.33 25.02 27.66 24 28 C28.55570532 35.52681748 34.76052388 41.84560764 41 48 C40.89171875 46.78376953 40.89171875 46.78376953 40.78125 45.54296875 C40.17747859 38.33964043 39.86964468 31.22747819 40 24 C44.7890625 22.875 44.7890625 22.875 46.6875 24 C48.53768174 26.81932455 49.20211016 29.7470645 50 33 C49.195625 32.814375 48.39125 32.62875 47.5625 32.4375 C46.716875 32.293125 45.87125 32.14875 45 32 C44.67 32.33 44.34 32.66 44 33 C43.76667344 45.20263899 43.76667344 45.20263899 48.65234375 55.6875 C49.91563797 56.84487384 51.17994526 58.00114297 52.4453125 59.15625 C55.05188644 62.24746332 54.9306415 65.04656533 55 69 C52.33333333 67.66666667 49.66666667 66.33333333 47 65 C44.8092179 67.16343531 42.62164801 69.32987938 40.4375 71.5 C39.79578857 72.13695801 39.15407715 72.77391602 38.49291992 73.43017578 C34.55136169 77.36923144 30.79789421 81.37099358 27.33203125 85.7421875 C26 87 26 87 23 87 C21.32642487 81.62694301 21.32642487 81.62694301 22 78 C25.25864763 73.83320467 28.99001237 70.43254941 33 67 C31.77992056 64.3094472 31.77992056 64.3094472 30 62 C29.731875 62.61875 29.46375 63.2375 29.1875 63.875 C28 66 28 66 25 68 C18.97502402 68.53794428 18.97502402 68.53794428 16.1875 67 C13.70376826 62.81687286 12.94297977 58.51103611 13.125 53.6875 C14 51 14 51 15.6875 49.125 C18.91934627 47.55275047 20.42434247 47.31237355 24 48 C26.92113658 50.07037786 29.42350652 52.52241222 32 55 C33.32538687 56.15501578 34.65814049 57.30166336 36 58.4375 C36.99 59.283125 37.98 60.12875 39 61 C39.66 59.68 40.32 58.36 41 57 C40.00419922 56.00419922 40.00419922 56.00419922 38.98828125 54.98828125 C36.32552083 52.32552083 33.66276042 49.66276042 31 47 C30.08605469 46.10667969 29.17210937 45.21335937 28.23046875 44.29296875 C26 42 26 42 25 40 C24.4225 40.309375 23.845 40.61875 23.25 40.9375 C21.15095893 41.92871384 19.24925862 42.47548801 17 43 C16.22076172 42.04287109 16.22076172 42.04287109 15.42578125 41.06640625 C14.37970703 39.82697266 14.37970703 39.82697266 13.3125 38.5625 C12.62800781 37.73878906 11.94351563 36.91507812 11.23828125 36.06640625 C8.73293438 33.75344204 7.35868026 33.25452931 4 33 C1.68250878 33.40869252 1.68250878 33.40869252 0 35 C-0.81584568 38.05908413 -0.81584568 38.05908413 -1 41 C2.28976808 42.09658936 3.71303767 41.79953138 7 41 C9.47120419 48.87696335 9.47120419 48.87696335 9 53 C8.34 53.66 7.68 54.32 7 55 C3.875 54.625 3.875 54.625 1 54 C0.34 57.3 -0.32 60.6 -1 64 C-1.66 64 -2.32 64 -3 64 C-2.97679688 62.96101563 -2.95359375 61.92203125 -2.9296875 60.8515625 C-2.81996099 53.71162416 -2.91227044 47.10143394 -4.54296875 40.109375 C-5.47922508 35.78819195 -5.56887427 32.31739306 -3.8125 28.25 C-1.69603378 25.62266262 -0.11925946 24.30573652 3 23 C5.875 22.8125 5.875 22.8125 9 24 C11.64093598 26.4386062 13.95522941 29.04173722 16 32 C16 32.66 16 33.32 16 34 C16.66 33.34 17.32 32.68 18 32 C16.21568681 29.66069977 14.42315931 27.3286163 12.625 25 C12.11710937 24.33226562 11.60921875 23.66453125 11.0859375 22.9765625 C10.35117188 22.02910156 10.35117188 22.02910156 9.6015625 21.0625 C9.15119629 20.47597656 8.70083008 19.88945312 8.23681641 19.28515625 C7.82866699 18.86105469 7.42051758 18.43695313 7 18 C4.31335965 18 3.37516177 19.01177381 1.21875 20.59765625 C0.46335937 21.1491333 -0.29203125 21.70061035 -1.0703125 22.26879883 C-1.87210938 22.86072021 -2.67390625 23.4526416 -3.5 24.0625 C-5.13513378 25.25559613 -6.77054863 26.44830714 -8.40625 27.640625 C-9.19644531 28.21876953 -9.98664062 28.79691406 -10.80078125 29.39257812 C-13.52278612 31.38210744 -16.25314596 33.35738624 -19 35.3125 C-19.7425 35.84488281 -20.485 36.37726563 -21.25 36.92578125 C-23 38 -23 38 -25 38 C-25.58736705 34.84037037 -25.72051654 32.14702627 -25 29 C-22.41924295 25.94568876 -19.2709444 23.921529 -15.9375 21.75 C-14.66616211 20.87214844 -14.66616211 20.87214844 -13.36914062 19.9765625 C-11.70751152 18.83202724 -10.03758385 17.69942981 -8.35888672 16.58007812 C-5.1875842 14.4558109 -2.09473996 12.23392356 1 10 C0.505 5.05 0.505 5.05 0 0 Z M11 12 C12.77945087 16.04420651 15.39529673 19.46078487 18 23 C18.33 22.01 18.66 21.02 19 20 C20.423125 19.87625 20.423125 19.87625 21.875 19.75 C25.10461791 19.34925077 25.10461791 19.34925077 26.375 16.9375 C26.58125 16.298125 26.7875 15.65875 27 15 C21.33137049 9.97921387 18.07890539 9.20136299 11 12 Z M20 57 C19.34 57.66 18.68 58.32 18 59 C19.65 59 21.3 59 23 59 C23.33 58.34 23.66 57.68 24 57 C22.68 57 21.36 57 20 57 Z " fill="#F9F9F9" transform="translate(43,422)"/>
<path d="M0 0 C4.95015506 2.36746546 6.53448251 6.51463364 8.34375 11.4609375 C9.24436466 14.94545852 8.98302053 17.55942813 8 21 C7.34 21.99 6.68 22.98 6 24 C13.79184987 30.03180849 22.0365668 34.06804064 31 38 C30.68546875 37.38253906 30.3709375 36.76507812 30.046875 36.12890625 C28.68159063 33.42712363 27.3385898 30.71509998 26 28 C25.39478516 26.80117188 25.39478516 26.80117188 24.77734375 25.578125 C22.46526778 20.77165882 21.5459535 17.33504632 22 12 C24.1875 11.1875 24.1875 11.1875 27 11 C29.79565993 13.2238204 31.6173816 14.91100916 32.8125 18.3125 C32.874375 18.869375 32.93625 19.42625 33 20 C31.35 20 29.7 20 28 20 C28.93471643 27.02648901 31.14456874 36.99557564 37.03515625 41.5859375 C39.09577303 42.51906622 39.09577303 42.51906622 41.1640625 43.2109375 C44.38141919 44.59371633 45.41876922 46.96930767 47 50 C47 50.66 47 51.32 47 52 C43.96936513 51.41070989 40.9982175 50.74955438 38 50 C33.71 59.57 29.42 69.14 25 79 C22 78 22 78 20.125 76 C18.40462623 71.4123366 20.13451804 68.35512893 22 64 C22.36351562 63.14792969 22.72703125 62.29585937 23.1015625 61.41796875 C24.04349543 59.2664313 25.00846149 57.12903955 26 55 C24.02 54.505 24.02 54.505 22 54 C21.608125 54.928125 21.21625 55.85625 20.8125 56.8125 C18.83570812 60.2889271 17.67589056 61.51213953 14 63 C10.85557915 62.77468322 9.42505523 62.42143774 7.1640625 60.1796875 C4.53689759 56.24560806 3.01541243 53.95557062 2.9375 49.125 C4.54748142 44.38976053 4.54748142 44.38976053 7 43 C12.8758441 42.46848003 16.43918432 43.76018252 21.4375 46.5 C22.07365234 46.83386719 22.70980469 47.16773438 23.36523438 47.51171875 C24.91693107 48.32840122 26.45947571 49.1624334 28 50 C28.66 48.35 29.32 46.7 30 45 C28.90300781 44.45730469 27.80601562 43.91460938 26.67578125 43.35546875 C25.22130061 42.6329203 23.7668765 41.91025804 22.3125 41.1875 C21.59126953 40.83107422 20.87003906 40.47464844 20.12695312 40.10742188 C16.31859523 38.21193781 12.61126143 36.25792874 9 34 C6.525 36.97 6.525 36.97 4 40 C3.34773438 39.566875 2.69546875 39.13375 2.0234375 38.6875 C-4.45579648 34.26166361 -4.45579648 34.26166361 -12 34 C-14.53785617 35.66273336 -14.9318384 36.73355011 -15.6875 39.6875 C-15.790625 40.450625 -15.89375 41.21375 -16 42 C-14.68 42.66 -13.36 43.32 -12 44 C-11.01 43.01 -10.02 42.02 -9 41 C-5.90753562 42.06636703 -4.99584553 43.00644659 -3.1875 45.8125 C-1.92930508 49.18976004 -1.9100679 50.63111895 -3 54 C-4.65 54 -6.3 54 -8 54 C-8 57.96 -8 61.92 -8 66 C-10 65 -10 65 -10.74609375 62.9609375 C-10.97425781 62.10757813 -11.20242187 61.25421875 -11.4375 60.375 C-12.9136822 55.19000183 -14.69836947 50.37264184 -17.30078125 45.62890625 C-20.29526616 40.08700037 -21.9645828 36.32337614 -21 30 C-19.20463558 26.87473601 -17.99330493 25.42953727 -14.6875 24 C-8.65747802 24 -3.75232904 27.63859654 1 31 C-0.40320235 26.79039294 -3.45028136 25.52644045 -7.0625 23.3125 C-8.05733398 22.68891602 -8.05733398 22.68891602 -9.07226562 22.05273438 C-10.71013444 21.02759346 -12.35446977 20.01279732 -14 19 C-18.34738116 23.0437038 -21.63874824 27.49521318 -25 32.375 C-26.51642156 34.5534127 -28.03328624 36.73151461 -29.55078125 38.90917969 C-30.51478288 40.29996641 -31.47058253 41.69647512 -32.41796875 43.09863281 C-33.56321616 44.7669661 -34.77566568 46.38881005 -36 48 C-36.66 48 -37.32 48 -38 48 C-40.08170423 43.83659153 -40.26182646 41.47844965 -39 37 C-37.10914533 33.83753532 -34.91518108 30.93154122 -32.6875 28 C-30.96772449 25.69172988 -29.25041852 23.38177559 -27.53955078 21.06689453 C-26.58733495 19.78851533 -25.61976848 18.52122504 -24.62841797 17.27294922 C-23.31131502 15.6098098 -23.31131502 15.6098098 -22 13 C-22.3589155 10.39296746 -22.3589155 10.39296746 -23.75 8.125 C-24.15734375 7.34382813 -24.5646875 6.56265625 -24.984375 5.7578125 C-25.31953125 5.17773438 -25.6546875 4.59765625 -26 4 C-22.52846619 4.76403415 -20.00229182 6.08186911 -17 8 C-16.773125 7.236875 -16.54625 6.47375 -16.3125 5.6875 C-13.07043684 -0.95101029 -6.59961286 -0.92568827 0 0 Z M-12 12 C-7.78884683 16.33987125 -7.78884683 16.33987125 -3 20 C-2.34 20 -1.68 20 -1 20 C-0.731875 19.401875 -0.46375 18.80375 -0.1875 18.1875 C0.99308761 16.01273336 2.26816512 14.73183488 4 13 C4.33 12.01 4.66 11.02 5 10 C-1.3347424 5.7768384 -6.5566638 7.64533104 -12 12 Z M10 52 C10 52.66 10 53.32 10 54 C11.32 53.67 12.64 53.34 14 53 C14 52.34 14 51.68 14 51 C11.9254644 50.8509288 11.9254644 50.8509288 10 52 Z " fill="#F8F8F8" transform="translate(132,489)"/>
<path d="M0 0 C5.28 0 10.56 0 16 0 C16.474375 2.51625 16.94875 5.0325 17.4375 7.625 C17.58501709 8.40568848 17.73253418 9.18637695 17.88452148 9.99072266 C18.13830119 11.34067302 18.38883265 12.69123614 18.63696289 14.04223633 C18.93931427 15.67273784 19.26030108 17.29977004 19.5859375 18.92578125 C21.75730643 35.04717131 21.06369027 53.11342867 12 67 C8.86653328 70.76590955 5.9682525 73.11342149 1.0625 73.875 C0.051875 73.91625 -0.95875 73.9575 -2 74 C-8.12509737 57.98928037 -7.47945218 44.86562643 -4.01171875 28.25390625 C-3.65264512 26.52364487 -3.29459198 24.79317144 -2.9375 23.0625 C-2.76025391 22.20366211 -2.58300781 21.34482422 -2.40039062 20.45996094 C-1.02891454 13.61040261 -0.3328009 6.98881888 0 0 Z " fill="#F18C37" transform="translate(361,224)"/>
<path d="M0 0 C8.04509855 1.29814541 15.78767409 3.22473866 23.625 5.4375 C33.68871378 8.22195231 43.67027996 10.48938634 54 12 C53.17242187 11.23171875 52.34484375 10.4634375 51.4921875 9.671875 C50.66976562 8.79015625 49.84734375 7.9084375 49 7 C49.19047619 2.80952381 49.19047619 2.80952381 51 1 C54.81302182 1.21583142 57.30322253 1.49974951 60.4375 3.75 C62 6 62 6 62.4375 8.625 C62.293125 9.40875 62.14875 10.1925 62 11 C61.01 11.66 60.02 12.32 59 13 C60.2375 13.391875 61.475 13.78375 62.75 14.1875 C66.70538366 15.64622305 68.67149343 17.41021904 71 21 C69.3745692 20.85904936 67.74965949 20.71207913 66.125 20.5625 C65.22007812 20.48128906 64.31515625 20.40007813 63.3828125 20.31640625 C61 20 61 20 59 19 C59.02320313 20.2065625 59.04640625 21.413125 59.0703125 22.65625 C59.08908665 24.27082709 59.10728507 25.88541094 59.125 27.5 C59.14175781 28.29148437 59.15851563 29.08296875 59.17578125 29.8984375 C59.22008135 35.30305003 58.45497752 39.7973531 57 45 C56.75552364 46.49453474 56.5363336 47.99421972 56.375 49.5 C56.189375 51.2325 56.189375 51.2325 56 53 C52.15719715 51.75368556 49.92680104 50.63951308 48 47 C48.3125 44.75 48.3125 44.75 49 43 C48.26136719 42.90460937 47.52273437 42.80921875 46.76171875 42.7109375 C43.61382524 41.90058867 42.19075063 40.80544642 39.8125 38.625 C38.80123047 37.71621094 38.80123047 37.71621094 37.76953125 36.7890625 C34.80606527 33.79288718 33.69490091 31.70762374 33.625 27.5625 C33.71542217 24.47307578 33.879149 23.20141834 35.5 20.5 C38.89216717 18.4646997 42.09163909 17.77538156 46 18 C49.5 19.4375 49.5 19.4375 52 21 C52 20.01 52 19.02 52 18 C51.03578125 17.86722656 50.0715625 17.73445312 49.078125 17.59765625 C47.18320313 17.33275391 47.18320313 17.33275391 45.25 17.0625 C43.37054688 16.80146484 43.37054688 16.80146484 41.453125 16.53515625 C38.90017407 16.13950662 36.4813709 15.69553578 34 15 C31.09487131 25.61608198 28.46804124 36.27452292 26 47 C23 47 23 47 20.75 45.5625 C18.46788726 42.22083491 18.81523952 40.48287802 19.4375 36.59375 C20.43224345 32.00687742 21.66321929 27.49797283 23 23 C21.02 22.67 19.04 22.34 17 22 C17.103125 23.0725 17.20625 24.145 17.3125 25.25 C17 29 17 29 14.8125 31.4375 C11.7179309 33.15670505 10.4491574 33.77606042 7 33 C4.375 30.6875 4.375 30.6875 2 28 C1.401875 27.54625 0.80375 27.0925 0.1875 26.625 C-1.87153034 23.80737953 -1.4108745 21.34569237 -1 18 C0.5 15.5625 0.5 15.5625 3 14 C8.78755644 13.30150181 13.31998538 14.48526977 18.80078125 16.34375 C21.09661609 17.14297111 21.09661609 17.14297111 24 17 C24.33 15.68 24.66 14.36 25 13 C23.90300781 12.66226563 22.80601562 12.32453125 21.67578125 11.9765625 C20.22132093 11.52614898 18.76689569 11.07562216 17.3125 10.625 C16.59126953 10.40328125 15.87003906 10.1815625 15.12695312 9.953125 C3.77272908 6.42761251 3.77272908 6.42761251 0 0 Z M55 6 C54.67 6.66 54.34 7.32 54 8 C54.66 8 55.32 8 56 8 C55.67 7.34 55.34 6.68 55 6 Z M6.9375 23 C6.298125 23.66 5.65875 24.32 5 25 C5.99 25 6.98 25 8 25 C8.66 23.68 9.32 22.36 10 21 C8.64082319 20.88397569 8.64082319 20.88397569 6.9375 23 Z M41 29 C40.02525184 32.08961458 40.02525184 32.08961458 40 35 C41.1043392 36.32420249 41.1043392 36.32420249 43.875 36.1875 C47.16570758 36.25343513 47.16570758 36.25343513 50 34 C50.57993699 31.80545319 50.57993699 31.80545319 50.6875 29.375 C50.75324219 28.55773437 50.81898438 27.74046875 50.88671875 26.8984375 C50.92410156 26.27195312 50.96148437 25.64546875 51 25 C46.34056908 24.46749361 44.2062498 25.61562521 41 29 Z " fill="#FAFAFA" transform="translate(191,541)"/>
<path d="M0 0 C1 1 1 1 1.0625 4.0625 C1.041875 5.031875 1.02125 6.00125 1 7 C1.59167969 7.03738281 2.18335938 7.07476563 2.79296875 7.11328125 C7.53612478 7.50789945 11.1656695 7.90779798 15 11 C15 11.66 15 12.32 15 13 C11.7 13 8.4 13 5 13 C5.2165625 14.02996094 5.433125 15.05992187 5.65625 16.12109375 C7.73129216 26.5382246 8.35839342 36.39420946 8 47 C2.25 45.125 2.25 45.125 0 44 C0 42.35 0 40.7 0 39 C-1.4540625 39.1546875 -1.4540625 39.1546875 -2.9375 39.3125 C-7.96509958 39.32273951 -12.02816557 36.92499435 -16 34 C-19.0863781 30.59529591 -19.45426483 28.36033055 -19.3046875 23.90625 C-18.89217591 21.32540823 -17.82906039 19.82906039 -16 18 C-18.31 17.67 -20.62 17.34 -23 17 C-22.85892253 18.45880109 -22.71197585 19.91703551 -22.5625 21.375 C-22.48128906 22.18710937 -22.40007812 22.99921875 -22.31640625 23.8359375 C-22.10909886 26.04272805 -22.10909886 26.04272805 -21 28 C-21.66 28 -22.32 28 -23 28 C-22.89171875 28.99966797 -22.89171875 28.99966797 -22.78125 30.01953125 C-22.10801736 36.70510535 -21.88306989 43.2830148 -22 50 C-25.07536854 49.34099246 -27.07735566 48.46132217 -30 47 C-30.33 41.06 -30.66 35.12 -31 29 C-32.32 29 -33.64 29 -35 29 C-34.896875 30.2375 -34.79375 31.475 -34.6875 32.75 C-34.6875 36.22084881 -34.80912875 36.77640797 -37.1875 39.5625 C-40 41 -40 41 -42.3125 41.125 C-46.41666935 39.40697562 -49.84454536 37.1481334 -53 34 C-54.1875 30.9375 -54.1875 30.9375 -54 28 C-51.86956522 23.43478261 -51.86956522 23.43478261 -49 22 C-42.96673831 21.69291782 -36.91839382 21.68480137 -31 23 C-31 20.69 -31 18.38 -31 16 C-31.57443848 16.02094727 -32.14887695 16.04189453 -32.74072266 16.06347656 C-35.36863374 16.14713764 -37.9962639 16.1988146 -40.625 16.25 C-41.52863281 16.28351562 -42.43226563 16.31703125 -43.36328125 16.3515625 C-49.21363274 16.43696909 -52.57916143 15.96553626 -57 12 C-57 11.34 -57 10.68 -57 10 C-55.80963135 10.01571045 -55.80963135 10.01571045 -54.59521484 10.03173828 C-37.94078614 10.22156657 -21.57086004 9.92924774 -5 8 C-5.969375 7.525625 -6.93875 7.05125 -7.9375 6.5625 C-11 5 -11 5 -12 4 C-12.04063832 2.33382885 -12.042721 0.66611905 -12 -1 C-7.89492887 -4.24984798 -4.21537663 -2.03534204 0 0 Z M-6 2 C-5 4 -5 4 -5 4 Z M-13 15 C-12.67 15.66 -12.34 16.32 -12 17 C-9.87423218 17.46651207 -9.87423218 17.46651207 -7.4375 17.625 C-6.61121094 17.69976563 -5.78492188 17.77453125 -4.93359375 17.8515625 C-4.29550781 17.90054688 -3.65742188 17.94953125 -3 18 C-3 16.68 -3 15.36 -3 14 C-4.27875 13.979375 -5.5575 13.95875 -6.875 13.9375 C-7.59429687 13.92589844 -8.31359375 13.91429687 -9.0546875 13.90234375 C-11.08185404 13.87350758 -11.08185404 13.87350758 -13 15 Z M-9.765625 24.4296875 C-11.34325151 26.1559839 -11.34325151 26.1559839 -11.4375 29.6875 C-11.20024546 32.87138281 -11.20024546 32.87138281 -10 35 C-4.81368447 33.55542751 -4.81368447 33.55542751 -1 30 C-0.85297733 27.70155211 -0.85297733 27.70155211 -1.3125 25.3125 C-1.43238281 24.50425781 -1.55226563 23.69601562 -1.67578125 22.86328125 C-1.78277344 22.24839844 -1.88976562 21.63351562 -2 21 C-5.57436432 21 -7.10306364 22.12301306 -9.765625 24.4296875 Z M-43 28 C-44.485 29.98 -44.485 29.98 -46 32 C-45.67 32.66 -45.34 33.32 -45 34 C-44.01 32.68 -43.02 31.36 -42 30 C-42.33 29.34 -42.66 28.68 -43 28 Z " fill="#FAFAFA" transform="translate(332,547)"/>
<path d="M0 0 C3.6561252 2.238444 5.54060825 4.43605671 8.0625 7.875 C6.29715356 12.71515316 3.86713275 17.1585127 1.4375 21.6875 C1.01726563 22.47576172 0.59703125 23.26402344 0.1640625 24.07617188 C-0.8675009 26.01035326 -1.90141172 27.94323983 -2.9375 29.875 C-2.35484375 29.22015625 -1.7721875 28.5653125 -1.171875 27.890625 C1.0625 25.875 1.0625 25.875 4.8125 25.625 C5.885 25.7075 6.9575 25.79 8.0625 25.875 C6.72077554 30.5710356 4.21680704 33.42502405 0.0625 35.875 C-6.17735126 38.36155727 -11.67080273 38.12579864 -17.9375 35.875 C-23.3905497 33.35820783 -25.61005977 29.83753818 -28.01953125 24.52734375 C-29.99957306 18.80628676 -29.73340702 14.06874262 -27.25 8.5625 C-21.69359706 -1.31336812 -10.3460519 -3.85128364 0 0 Z " fill="#F08C38" transform="translate(522.9375,357.125)"/>
<path d="M0 0 C12.21 0 24.42 0 37 0 C37 8.25 37 16.5 37 25 C34.628125 24.979375 32.25625 24.95875 29.8125 24.9375 C22.50220374 24.90657211 15.27975209 25.30194158 8 26 C3.92437928 17.24879408 1.20633293 9.65066346 0 0 Z " fill="#F18B36" transform="translate(493,224)"/>
<path d="M0 0 C11.88 0 23.76 0 36 0 C36 8.25 36 16.5 36 25 C33.999375 24.979375 31.99875 24.95875 29.9375 24.9375 C22.25451036 24.92965221 14.65849503 25.39933372 7 26 C6.566875 24.824375 6.13375 23.64875 5.6875 22.4375 C4.69631454 19.75049486 3.64106645 17.26832776 2.375 14.6875 C1 11 1 11 0 0 Z " fill="#F18B36" transform="translate(213,224)"/>
<path d="M0 0 C18 0 18 0 24 4 C26.35242347 7.20785018 26.4684209 10.09649252 26 14 C24.12711824 17.60703153 22.9101088 19.5449456 19.25 21.375 C18.5075 21.58125 17.765 21.7875 17 22 C19.96293636 27.35514317 22.95137669 32.6931372 26 38 C23.23046875 38.29296875 23.23046875 38.29296875 20 38 C17.98828125 35.98828125 17.98828125 35.98828125 16.3125 33.3125 C15.75175781 32.44238281 15.19101562 31.57226562 14.61328125 30.67578125 C13 28 13 28 11.60546875 25.23046875 C9.95266812 22.40008693 9.95266812 22.40008693 5 22 C5 27.28 5 32.56 5 38 C3.35 38 1.7 38 0 38 C0 25.46 0 12.92 0 0 Z " fill="#FDFAF7" transform="translate(343,356)"/>
<path d="M0 0 C18 0 18 0 24 4 C26.35242347 7.20785018 26.4684209 10.09649252 26 14 C24.28935917 17.29456752 23.08550478 19.43840204 19.75 21.1640625 C16.59245658 22.12388394 13.98114564 22.19738782 10.6875 22.125 C8.810625 22.08375 6.93375 22.0425 5 22 C5 27.28 5 32.56 5 38 C3.35 38 1.7 38 0 38 C0 25.46 0 12.92 0 0 Z " fill="#FDFAF8" transform="translate(414,356)"/>
<path d="M0 0 C1.98 0 3.96 0 6 0 C8.85419235 6.83327227 11.37056801 13.76667457 13.80517578 20.75756836 C14.16651611 21.79409546 14.16651611 21.79409546 14.53515625 22.8515625 C14.77250488 23.53379883 15.00985352 24.21603516 15.25439453 24.91894531 C16.02644542 27.07381166 16.85295125 29.20306191 17.68359375 31.3359375 C19 35 19 35 19 38 C17.35 38 15.7 38 14 38 C13.34 35.36 12.68 32.72 12 30 C6.06 30 0.12 30 -6 30 C-6.66 32.64 -7.32 35.28 -8 38 C-9.65 38 -11.3 38 -13 38 C-12.37368244 33.20364067 -11.00517739 28.90609863 -9.27734375 24.4140625 C-9.01240616 23.71227875 -8.74746857 23.010495 -8.47450256 22.28744507 C-7.6339973 20.06463276 -6.78588461 17.84481531 -5.9375 15.625 C-5.36342575 14.11086904 -4.78985281 12.59654791 -4.21679688 11.08203125 C-2.81698779 7.38579558 -1.4103525 3.69222483 0 0 Z " fill="#FDF8F4" transform="translate(388,356)"/>
<path d="M0 0 C3.19690229 1.9314618 4.99056098 3.67777513 7 6.8125 C7 7.4725 7 8.1325 7 8.8125 C4.25 9.0625 4.25 9.0625 1 8.8125 C-1.25 6.875 -1.25 6.875 -3 4.8125 C-6.47673705 3.07413148 -10.19870798 3.35813681 -14 3.8125 C-17.74526566 5.61577606 -19.54125416 7.13967277 -21.875 10.5625 C-23.68608661 15.79452799 -23.68608661 19.83047201 -21.875 25.0625 C-19.54125416 28.48532723 -17.74526566 30.00922394 -14 31.8125 C-9.34751857 32.62960247 -5.94528153 32.23262512 -1.625 30.3125 C1.82266458 27.02900992 2.64073609 24.3433797 4 19.8125 C-1.28 19.8125 -6.56 19.8125 -12 19.8125 C-12 18.4925 -12 17.1725 -12 15.8125 C-4.74 15.8125 2.52 15.8125 10 15.8125 C10 22.57000703 8.65607013 26.26174769 5 31.8125 C-0.16692327 36.75982903 -6.07938864 37.23979147 -12.921875 37.140625 C-17.64678828 36.63695404 -20.6900557 35.22181907 -24 31.8125 C-27.68293799 26.64378018 -29.82948229 21.37763871 -29.421875 14.98046875 C-28.42051615 9.83459686 -26.28313209 6.03147549 -22.5 2.4375 C-15.68912744 -1.98956716 -7.78791861 -2.97326177 0 0 Z " fill="#FDF7F2" transform="translate(327,357.1875)"/>
<path d="M0 0 C3.60444886 2.59855616 4.27388919 4.77520152 5.6875 8.9375 C4.6875 9.9375 4.6875 9.9375 2.4375 10.3125 C-0.3125 9.9375 -0.3125 9.9375 -2.6875 7.375 C-5.1740513 4.49209189 -5.1740513 4.49209189 -9.0625 5.0625 C-12.14344297 5.60212149 -12.14344297 5.60212149 -13.3125 6.9375 C-13.35330783 8.93708364 -13.35504356 10.93795254 -13.3125 12.9375 C-9.42678654 14.67366984 -5.64260919 16.15964833 -1.5625 17.375 C1.00011522 18.23502589 2.61165932 18.87774674 4.75 20.5625 C6.25205693 24.36771088 6.455115 27.92007568 5.6875 31.9375 C2.9373773 35.63052192 0.19987694 37.93474957 -4.3125 38.9375 C-9.163528 39.00164582 -13.09281578 38.6095709 -17.375 36.25 C-19.70501815 33.4690106 -20.0684996 31.51617255 -20.3125 27.9375 C-18.3325 27.9375 -16.3525 27.9375 -14.3125 27.9375 C-14.02375 28.576875 -13.735 29.21625 -13.4375 29.875 C-12.48426549 32.08956079 -12.48426549 32.08956079 -10.3125 32.9375 C-6.66822485 33.33361686 -4.92886622 33.36421508 -1.875 31.25 C0.00706302 29.02794902 0.00706302 29.02794902 -0.71484375 26.29296875 C-1.01068359 25.12701172 -1.01068359 25.12701172 -1.3125 23.9375 C-2.86710938 23.48310547 -2.86710938 23.48310547 -4.453125 23.01953125 C-5.8231931 22.59724999 -7.19296987 22.17402273 -8.5625 21.75 C-9.24441406 21.55341797 -9.92632813 21.35683594 -10.62890625 21.15429688 C-15.28215993 19.68603722 -17.7895778 18.13599932 -20.3125 13.9375 C-21.3731347 9.81974176 -20.75596929 6.69304027 -18.625 3.0625 C-13.1742946 -1.94625631 -6.82660921 -2.1896671 0 0 Z " fill="#FDFDFD" transform="translate(558.3125,356.0625)"/>
<path d="M0 0 C1.65 0 3.3 0 5 0 C5 5.61 5 11.22 5 17 C11.27 17 17.54 17 24 17 C24 11.39 24 5.78 24 0 C25.65 0 27.3 0 29 0 C29 12.54 29 25.08 29 38 C27.35 38 25.7 38 24 38 C24 32.39 24 26.78 24 21 C17.73 21 11.46 21 5 21 C5 26.61 5 32.22 5 38 C3.35 38 1.7 38 0 38 C0 25.46 0 12.92 0 0 Z " fill="#FDF9F6" transform="translate(446,356)"/>
<path d="M0 0 C3.6561252 2.238444 5.54060825 4.43605671 8.0625 7.875 C7.7325 8.535 7.4025 9.195 7.0625 9.875 C2.2558405 9.43803095 0.22928288 8.49418044 -2.9375 4.875 C-6.41423705 3.13663148 -10.13620798 3.42063681 -13.9375 3.875 C-17.68276566 5.67827606 -19.47875416 7.20217277 -21.8125 10.625 C-23.62358661 15.85702799 -23.62358661 19.89297201 -21.8125 25.125 C-19.23183742 28.90997178 -16.60184572 31.35383058 -11.98046875 32.2578125 C-6.89377243 32.5495924 -3.91933846 31.17701238 0.0625 27.875 C0.3925 27.215 0.7225 26.555 1.0625 25.875 C3.3725 25.875 5.6825 25.875 8.0625 25.875 C6.72077554 30.5710356 4.21680704 33.42502405 0.0625 35.875 C-6.17735126 38.36155727 -11.67080273 38.12579864 -17.9375 35.875 C-23.3905497 33.35820783 -25.61005977 29.83753818 -28.01953125 24.52734375 C-29.99957306 18.80628676 -29.73340702 14.06874262 -27.25 8.5625 C-21.69359706 -1.31336812 -10.3460519 -3.85128364 0 0 Z " fill="#FDF9F6" transform="translate(522.9375,357.125)"/>
<path d="M0 0 C10.04995766 -0.48433531 10.04995766 -0.48433531 14.1875 1.625 C16 4 16 4 16.5625 7 C15.8685357 10.70114292 14.95080406 11.70982372 12 14 C7.93404512 14.52667809 4.11858117 14.17906875 0 14 C0 9.38 0 4.76 0 0 Z " fill="#F18E3B" transform="translate(419,360)"/>
<path d="M0 0 C10.04995766 -0.48433531 10.04995766 -0.48433531 14.1875 1.625 C16 4 16 4 16.5625 7 C15.8685357 10.70114292 14.95080406 11.70982372 12 14 C7.93404512 14.52667809 4.11858117 14.17906875 0 14 C0 9.38 0 4.76 0 0 Z " fill="#F18E3B" transform="translate(348,360)"/>
<path d="M0 0 C1.65 0 3.3 0 5 0 C5 12.54 5 25.08 5 38 C3.35 38 1.7 38 0 38 C0 25.46 0 12.92 0 0 Z " fill="#FEFEFE" transform="translate(483,356)"/>
<path d="M0 0 C0.66 0 1.32 0 2 0 C3.00380916 2.79035046 4.0031945 5.58214855 5 8.375 C5.28617187 9.1690625 5.57234375 9.963125 5.8671875 10.78125 C6.13789063 11.54179687 6.40859375 12.30234375 6.6875 13.0859375 C6.93886719 13.7876709 7.19023437 14.4894043 7.44921875 15.21240234 C8 17 8 17 8 19 C3.38 19 -1.24 19 -6 19 C-5.13832722 14.69163608 -3.94423127 10.78564022 -2.4375 6.6875 C-2.20353516 6.04232422 -1.96957031 5.39714844 -1.72851562 4.73242188 C-1.15552993 3.15378781 -0.57820536 1.57672974 0 0 Z " fill="#F29343" transform="translate(390,363)"/>
<path d="M0 0 C4.45280788 -0.17461992 8.08594062 -0.30238787 12 2 C13.0625 3.875 13.0625 3.875 13 6 C11.625 8.375 11.625 8.375 9 10 C5.75023242 9.76746864 1.39476335 9.39476335 -1 7 C-0.71269945 4.66055264 -0.38063221 2.3260857 0 0 Z M5 4 C6 6 6 6 6 6 Z " fill="#F6F6F6" transform="translate(385,572)"/>
<path d="M0 0 C5.31368432 0.27018734 5.31368432 0.27018734 7.6875 2.1875 C8.5625 4.625 8.5625 4.625 8.6875 7.1875 C7.6975 8.6725 7.6975 8.6725 6.6875 10.1875 C-1.88392857 9.47321429 -1.88392857 9.47321429 -5.3125 6.1875 C-4.24505132 0.24028592 -4.24505132 0.24028592 0 0 Z M1.6875 3.1875 C1.6875 6.1875 1.6875 6.1875 1.6875 6.1875 Z " fill="#F9F9F9" transform="translate(371.3125,576.8125)"/>
<path d="M0 0 C4.17183873 0.39356969 6.1828191 1.55540016 9.3125 4.3125 C9.75 7 9.75 7 9.3125 9.3125 C8.3125 10.3125 8.3125 10.3125 5.0625 10.5625 C1.09940291 10.29829353 -0.75412078 9.97920838 -3.6875 7.3125 C-4.0625 4.1875 -4.0625 4.1875 -3.6875 1.3125 C-2.6875 0.3125 -2.6875 0.3125 0 0 Z M2.3125 4.3125 C3.3125 6.3125 3.3125 6.3125 3.3125 6.3125 Z " fill="#F8F8F8" transform="translate(351.6875,580.6875)"/>
<path d="M0 0 C0.66 0 1.32 0 2 0 C2 6.93 2 13.86 2 21 C-3.95238095 17.42857143 -3.95238095 17.42857143 -5 14 C-5.63459454 8.28864918 -4.52631355 5.48803543 -1 1 C-0.67 0.67 -0.34 0.34 0 0 Z " fill="#FDF9F6" transform="translate(311,364)"/>
<path d="M0 0 C0.79309662 6.08040739 -0.99683162 9.64057946 -4.265625 14.75390625 C-6.55985661 17.72503952 -8.69412676 19.26835211 -12 21 C-11.18336745 15.73454835 -7.27800654 0 0 0 Z " fill="#F29546" transform="translate(99,262)"/>
</svg>
