<?xml version="1.0" encoding="UTF-8"?>
<!DOCTYPE svg PUBLIC "-//W3C//DTD SVG 1.1//EN" "http://www.w3.org/Graphics/SVG/1.1/DTD/svg11.dtd">
<!-- Creator: CorelDRAW 2020 (64-Bit) -->
<svg xmlns="http://www.w3.org/2000/svg" xml:space="preserve" width="1.80474in" height="1.08876in" version="1.1" style="shape-rendering:geometricPrecision; text-rendering:geometricPrecision; image-rendering:optimizeQuality; fill-rule:evenodd; clip-rule:evenodd"
viewBox="0 0 1804.74 1088.76"
 xmlns:xlink="http://www.w3.org/1999/xlink"
 xmlns:xodm="http://www.corel.com/coreldraw/odm/2003">
 <defs>
  <style type="text/css">
   <![CDATA[
    .fil1 {fill:#F18B35}
    .fil0 {fill:#1B3A54;fill-rule:nonzero}
   ]]>
  </style>
 </defs>
 <g id="Layer_x0020_1">
  <metadata id="CorelCorpID_0Corel-Layer"/>
  <g id="_2443385730896">
   <path class="fil0" d="M960.17 835.19c11.93,0 22.56,2.81 31.89,8.45 9.33,5.63 16.21,13.75 20.63,24.35l-18.22 0c-3.31,-6.3 -7.95,-11.1 -13.92,-14.41 -5.96,-3.31 -12.76,-4.97 -20.38,-4.97 -8.17,0 -15.54,1.85 -22.11,5.55 -6.57,3.7 -11.71,8.97 -15.41,15.82 -3.7,6.85 -5.55,14.74 -5.55,23.69 0,8.95 1.85,16.84 5.55,23.69 3.7,6.85 8.84,12.15 15.41,15.9 6.57,3.76 13.94,5.63 22.11,5.63 11.71,0 21.24,-3.43 28.58,-10.27 7.35,-6.85 11.63,-16.13 12.84,-27.83l-47.38 0 0 -11.93 63.29 0 0 11.93c-0.99,9.72 -4.11,18.5 -9.36,26.34 -5.25,7.84 -12.04,13.97 -20.38,18.39 -8.34,4.42 -17.54,6.63 -27.59,6.63 -10.71,0 -20.54,-2.51 -29.49,-7.54 -8.94,-5.03 -16.02,-11.98 -21.2,-20.87 -5.19,-8.89 -7.79,-18.91 -7.79,-30.07 0,-11.26 2.59,-21.34 7.79,-30.23 5.19,-8.89 12.26,-15.82 21.2,-20.79 8.94,-4.97 18.78,-7.46 29.49,-7.46zm136.18 115.97l-30.15 -47.38 -14.74 0 0 47.38 -15.07 0 0 -114.81 37.28 0c8.61,0 15.91,1.46 21.87,4.39 5.96,2.93 10.44,6.96 13.42,12.09 2.98,5.13 4.47,10.91 4.47,17.31 0,8.28 -2.48,15.46 -7.45,21.54 -4.97,6.07 -12.43,9.89 -22.37,11.43l31.64 48.04 -18.89 0zm-44.9 -59.31l22.2 0c8.28,0 14.44,-1.91 18.47,-5.71 4.03,-3.81 6.05,-9.14 6.05,-15.99 0,-6.85 -1.99,-12.18 -5.96,-15.99 -3.98,-3.81 -10.16,-5.72 -18.56,-5.72l-22.2 0 0 43.41zm157.39 34.13l-51.03 0 -8.94 25.18 -15.41 0 41.75 -114.81 16.57 0 41.58 114.81 -15.57 0 -8.94 -25.18zm-4.31 -11.93l-21.2 -59.31 -21.21 59.31 42.41 0zm63.61 -10.27l0 47.38 -15.07 0 0 -114.81 37.28 0c8.61,0 15.91,1.46 21.87,4.39 5.96,2.93 10.44,6.96 13.42,12.09 2.98,5.13 4.47,10.91 4.47,17.31 0,9.72 -3.28,17.75 -9.86,24.11 -6.57,6.35 -16.54,9.52 -29.9,9.52l-22.2 0zm22.2 -11.93c8.28,0 14.44,-1.91 18.47,-5.71 4.03,-3.81 6.05,-9.14 6.05,-15.99 0,-6.85 -1.99,-12.18 -5.96,-15.99 -3.98,-3.81 -10.16,-5.72 -18.56,-5.72l-22.2 0 0 43.41 22.2 0zm146.62 -55.5l0 114.81 -15.24 0 0 -51.85 -57.82 0 0 51.85 -15.07 0 0 -114.81 15.07 0 0 51.02 57.82 0 0 -51.02 15.24 0zm39.93 0l0 114.81 -15.07 0 0 -114.81 15.07 0zm77.37 -1.16c11.93,0 22.56,2.81 31.89,8.45 9.33,5.63 16.21,13.75 20.63,24.35l-18.22 0c-3.31,-6.3 -7.95,-11.1 -13.92,-14.41 -5.96,-3.31 -12.76,-4.97 -20.38,-4.97 -8.17,0 -15.54,1.85 -22.11,5.55 -6.57,3.7 -11.71,8.97 -15.41,15.82 -3.7,6.85 -5.55,14.74 -5.55,23.69 0,8.95 1.85,16.84 5.55,23.69 3.7,6.85 8.84,12.15 15.41,15.9 6.57,3.76 13.94,5.63 22.11,5.63 7.62,0 14.41,-1.69 20.38,-5.05 5.96,-3.37 10.6,-8.2 13.92,-14.5l18.22 0c-4.42,10.6 -11.3,18.72 -20.63,24.35 -9.33,5.63 -19.96,8.45 -31.89,8.45 -10.71,0 -20.54,-2.51 -29.49,-7.54 -8.94,-5.03 -16.02,-11.98 -21.2,-20.87 -5.19,-8.89 -7.79,-18.91 -7.79,-30.07 0,-11.26 2.59,-21.34 7.79,-30.23 5.19,-8.89 12.26,-15.82 21.2,-20.79 8.94,-4.97 18.78,-7.46 29.49,-7.46zm151.09 83.83c0,5.74 -1.49,11.16 -4.47,16.24 -2.98,5.08 -7.4,9.2 -13.25,12.34 -5.85,3.15 -12.87,4.72 -21.04,4.72 -7.29,0 -13.86,-1.19 -19.71,-3.56 -5.85,-2.37 -10.46,-5.8 -13.83,-10.27 -3.37,-4.47 -5.05,-9.8 -5.05,-15.99l16.07 0c0.44,5.19 2.51,9.39 6.21,12.59 3.7,3.2 9.14,4.81 16.31,4.81 7.4,0 13.26,-1.88 17.56,-5.63 4.31,-3.76 6.46,-8.56 6.46,-14.41 0,-4.42 -1.22,-7.93 -3.65,-10.52 -2.43,-2.59 -5.46,-4.56 -9.11,-5.88 -3.65,-1.33 -8.5,-2.65 -14.58,-3.98 -7.62,-1.77 -13.78,-3.59 -18.47,-5.47 -4.69,-1.88 -8.67,-4.91 -11.93,-9.11 -3.26,-4.2 -4.89,-10 -4.89,-17.39 0,-6.41 1.55,-12.04 4.64,-16.9 3.09,-4.86 7.54,-8.64 13.33,-11.35 5.8,-2.7 12.57,-4.06 20.3,-4.06 10.49,0 19.02,2.57 25.6,7.7 6.57,5.13 10.35,12.23 11.35,21.29l-16.73 0c-0.44,-4.53 -2.57,-8.39 -6.38,-11.6 -3.81,-3.2 -8.92,-4.8 -15.32,-4.8 -6.52,0 -11.82,1.63 -15.91,4.89 -4.09,3.26 -6.13,8.04 -6.13,14.33 0,4.53 1.22,8.12 3.65,10.77 2.43,2.65 5.44,4.64 9.03,5.96 3.59,1.33 8.59,2.71 14.99,4.14 7.51,1.77 13.59,3.56 18.22,5.39 4.64,1.82 8.59,4.78 11.85,8.86 3.26,4.09 4.89,9.72 4.89,16.9z"/>
   <path class="fil1" d="M1568.55 749.61c9.34,17.65 25.37,28.33 41.45,40.31 37.23,27.74 23.55,2.09 58.48,2.09 17.31,0 28.52,16.41 36.76,26.83 22.77,28.78 58.07,90.34 99.5,91.27 -18.49,-34.95 -49.44,-68.83 -75.28,-97.33 -5.43,-6 -12.21,-9.91 -19.33,-17 -6.29,-6.26 -10.94,-9.69 -18.31,-15 -6.53,-4.7 -17.29,-10.07 -17.29,-19.05l0 -324 66.62 0c-4,-14.98 -26.31,-30.28 -42.39,-30.28l-24.23 0c0,-18.58 -13.52,-29.11 -28.13,-41.52 -9.97,-8.46 -26.13,-20.79 -41.52,-22.07l0 63.59 -99.93 0c6.24,-5.43 4.55,-5.17 15.14,-6.06 -4.28,-16.04 -65.85,-75.92 -89.67,-44.24 -10.64,14.15 -5.96,34.74 -3.69,50.21l-88.33 0.09c0,-23.83 -10.63,-27.5 -29.56,-43.11 -10.2,-8.41 -23.7,-20.11 -40.09,-20.48l0 63.59c-63.8,0 -28.47,1.51 -69.62,-30.31 -50.2,-38.81 -60.59,-30.31 -60.59,30.31l-51.48 0c-2.08,-24.99 -23.28,-44.7 -38.63,-58.27 -5.48,-4.84 -7.81,-5.96 -13.53,-10.7 -14.27,-11.8 -30.37,-23.2 -50.8,-24.91 2.02,24.26 28.45,23.64 35.3,46.46 4.52,15.07 4.07,31.31 4.07,47.41l-75.7 0c0,-26.08 -35.38,-49.61 -57.45,-60.78 -17.16,-8.69 -31.76,-2.81 -51.56,-2.81 -14.68,0 -26.57,-4.96 -34.62,-13.83 -47.32,-52.12 -37.06,-138.96 -0.55,-193.94 16.97,-25.57 37.39,-44.69 63.62,-60.54 39.82,-24.06 100.61,-23.76 143.85,-9.96 22.95,7.32 28.13,9.18 37.5,32.14 4.68,11.45 3.96,13.02 11.9,21.41 15.76,16.67 36.41,37.57 59.92,43.04 0,-81.33 -238.88,-249.29 -364.11,-106.72 -28.78,32.76 -53.77,77.67 -53.77,137 0,77.92 60.41,127.51 113.75,167.87 12.27,9.28 45.19,30.59 61.88,31.99l0 15.14 -54.5 0c0,-23.83 -10.63,-27.5 -29.56,-43.11 -10.2,-8.41 -23.7,-20.11 -40.09,-20.48l0 63.59 -99.93 0c6.24,-5.43 4.56,-5.17 15.14,-6.06 -1.43,-17.1 -17.09,-23.68 -27.94,-32.63 -67.07,-55.3 -74.62,14.27 -62.91,38.68l-87.81 0c0,-20.36 -17.39,-32.89 -33.71,-45.02 -30.66,-22.8 -16.99,-5.63 -29.44,-43.23 -11.87,-35.83 -31.57,-60.15 -53.62,-88.69 -17.7,-22.91 -54.02,-48.85 -77.62,-64.7 -134.66,-90.46 -296.15,4.05 -296.15,132.63 0,52.99 15.38,75.14 33.31,109.01 -12.3,0 -9.75,-1.01 -18.17,3.03 16.3,24.33 29.06,20.88 49.74,29 3.5,1.37 11.7,7.63 16.89,10.37l-0.03 245.3c-0.2,24.77 -3.85,25.64 9.71,38.74 12.92,12.47 39.03,38.22 59.96,39.97l0 -336.12 269.5 0 0 48.44c-21.36,1.78 -26.7,6.06 -57.54,6.06 -48.26,0 -124.94,-34.28 -159.58,40.27 -22.31,48.02 -3.95,76.7 27.04,107.41 81.81,81.07 138.59,18.63 138.59,-38.67 0,-33.33 -23.34,-41.16 -36.34,-60.56 31.87,0 58.57,2.27 87.82,9.08 0,48.43 0.3,96.96 -0.02,145.37 -0.25,37.41 -0.33,33.78 21.6,51.07 11.49,9.06 30.75,26.2 48.07,27.64l0 -336.12 96.9 0c1.82,21.83 24.09,61.26 30.28,87.81 -40.52,19.45 -89.69,29.09 -74.96,90.07 6.92,28.7 64.61,76.48 96.16,76.48 27.11,0 54.51,-41.18 54.51,-66.62 0,-19.21 -3.03,-25.28 -3.03,-45.42 9.25,-4.44 49.31,-12.11 63.59,-12.11l0 145.35c0,20.76 50.07,58.93 69.65,60.57l0 -336.12 54.5 0 0 596.53c0,15.25 53.22,50.68 69.65,54.5l0 -127.54c-31.81,-3.8 -57.99,-36.84 -57.06,-69.04 1.13,-38.77 27.8,-60.68 57.06,-65.85l0 -388.61 72.67 0c-6.56,13.66 -18.17,83.3 -18.17,102.95 0,47.26 21.11,87.98 43.27,114.19 12.75,15.08 73.8,64.47 96.02,64.47 73.27,0 81.76,-81.41 81.76,-139.29 0,-37.07 -12.85,-70.09 -15.16,-106 -1.37,-21.36 -1.61,-16.7 0.02,-36.32l60.56 0 0 275.55c0,15.9 17.62,29.14 27.19,36.4 9.89,7.51 27.64,22.93 42.46,24.17l0 -336.12c95.98,0 94.07,-9.05 103.93,17.2 8.8,23.43 23.26,46.62 23.26,73.65 -15.45,0.34 -39.12,12.65 -49.78,19.86 -44.39,29.98 -26.1,79.12 6.65,108.06 42.84,37.86 81.37,53.24 112.75,-0.78 13.83,-23.81 5.22,-49.78 3.06,-75.67 19.15,-4.46 44,-12.11 66.62,-12.11l0 151.41c0,8.37 9.86,14.63 15.14,18.17l-2.52 3.53c-1.06,0.05 -2.26,-2.13 -2.64,-1.46l-10 -2.33c-13.69,-0.87 -26.6,5.86 -36.31,12.37zm-620.76 176.29l0 -18.06c-2.6,-2.91 -3.03,-8.51 -3.03,-18.93 0,-2.8 1.12,-4.85 3.03,-6.37l0 -22.28c-12.43,5.55 -21.2,20.33 -21.2,34.71 0,15.1 9.58,25.98 21.2,30.93zm-684.35 -309.52c4.21,-18.07 4.28,-21.69 12,-36.44 6.02,-11.51 13.99,-20.22 24.33,-27.14 0,17.72 -2.85,26.74 -10.33,38.12 -8.92,13.56 -13.43,17.05 -26.01,25.47zm823.64 45.42c-2.4,-10.3 -6.91,-17.19 -10.2,-29.16 -10.63,-38.56 -2.54,-72.17 4.91,-109.37 8.44,-42.18 11.35,-40.43 11.35,-85.54l48.45 0c0,31.61 12.11,51.95 12.11,102.95 0,54.48 -16.26,120 -66.62,121.12zm-442.1 -224.07l109.01 0 0 75.7c-30.58,-8.11 -59.41,2.39 -87.81,3.03 -6.36,-27.28 -21.2,-45.58 -21.2,-78.73zm847.87 0l112.04 0 0 75.7c-25.42,-2.11 -6.88,-5.35 -51.99,-0.51 -12.01,1.29 -26.67,3.33 -35.82,3.54 -20.19,-42.06 -22.13,-74.02 -24.23,-78.73zm-1093.14 -30.28l-248.31 0c0,-18.31 -5.81,-22.57 -28.13,-41.52 -9.98,-8.46 -26.14,-20.79 -41.52,-22.07l0 63.59c-4.56,-5.24 -3.87,-3.8 -6.3,-11.87 -9.87,-32.75 -6.56,-84.49 9.44,-115.19 4.2,-8.08 10.22,-14.86 16.3,-23.06 2.26,-3.06 7,-9.69 9.17,-12.02 50.97,-54.83 149.12,-75.18 200.69,-49 10.62,5.39 20.5,20.09 26.86,30.67 20.39,33.9 38.09,80.78 22.64,123.44 -4.33,11.98 -8.07,12.8 0.28,22.9 11.43,13.81 31.02,22.44 38.86,34.14z"/>
   <g>
    <path class="fil0" d="M921.2 214.5c0.7,2.65 0.73,5.35 0.1,8.07 -0.63,2.72 -1.85,5.1 -3.67,7.13 0,0.07 -0.12,0.06 -0.37,-0.05 -0.24,-0.11 -0.5,-0.23 -0.78,-0.37 -0.28,-0.14 -0.51,-0.28 -0.68,-0.42 -0.18,-0.14 -0.26,-0.21 -0.26,-0.21l-4.72 -2.83c-0.77,-0.56 -1.56,-1.06 -2.36,-1.52 -0.8,-0.45 -1.59,-0.96 -2.36,-1.52 0.07,0 0,-0.05 -0.21,-0.16 -0.21,-0.1 -0.44,-0.24 -0.68,-0.42 -0.25,-0.18 -0.46,-0.35 -0.63,-0.52 -0.18,-0.18 -0.26,-0.26 -0.26,-0.26 1.54,-1.81 2.66,-3.84 3.35,-6.08 0.7,-2.24 0.91,-4.51 0.63,-6.81 -0.35,-2.52 -1.12,-4.78 -2.31,-6.81 -2.44,-0.21 -4.87,0.02 -7.28,0.68 -2.41,0.67 -4.63,1.59 -6.66,2.78 -1.96,1.19 -3.74,2.62 -5.34,4.3 -1.61,1.68 -2.9,3.53 -3.88,5.56 -2.03,3.98 -2.94,8.14 -2.73,12.47l5.66 0c0.42,0.14 0.73,0.28 0.94,0.42 0.14,0.14 0.31,0.24 0.52,0.31 0.21,0.07 0.38,0.17 0.52,0.31 0.77,0.49 1.56,0.96 2.36,1.42 0.8,0.45 1.59,0.96 2.36,1.52 0.77,0.49 1.56,0.96 2.36,1.41 0.8,0.46 1.59,0.96 2.36,1.52 0.28,0.21 0.56,0.4 0.84,0.58 0.28,0.17 0.56,0.37 0.84,0.57l0.21 0.21 -5.03 0 -13.1 0 0 6.92 0 17.19 0 20.65 0 24.53 0 7.34c-0.42,-0.14 -0.77,-0.31 -1.05,-0.52 -0.26,-0.14 -0.52,-0.26 -0.77,-0.37 -0.24,-0.11 -0.33,-0.16 -0.26,-0.16 -0.77,-0.49 -1.54,-0.96 -2.34,-1.42 -0.8,-0.45 -1.57,-0.96 -2.34,-1.52 -0.77,-0.49 -1.54,-0.98 -2.34,-1.47 -0.79,-0.49 -1.57,-0.98 -2.34,-1.46 -0.35,-0.21 -0.65,-0.42 -0.93,-0.63 -0.63,-0.35 -0.94,-0.59 -0.94,-0.73l0 -14.15 0 -17.19 0 -20.65 0 -16.35 -4.82 0c-0.14,-0.07 -0.3,-0.14 -0.47,-0.21 -0.18,-0.07 -0.33,-0.14 -0.47,-0.21 -0.14,-0.14 -0.31,-0.24 -0.52,-0.31 -0.21,-0.07 -0.39,-0.17 -0.52,-0.31 -1.82,-0.98 -3.43,-1.96 -4.82,-2.93 -0.77,-0.49 -1.54,-0.98 -2.31,-1.47 -0.77,-0.49 -1.54,-0.98 -2.3,-1.47 -0.35,-0.21 -0.65,-0.42 -0.89,-0.63 -0.24,-0.21 -0.5,-0.39 -0.78,-0.53 -0.14,-0.14 -0.21,-0.21 -0.21,-0.21l4.93 0 19.34 0 2.5 0c-0.49,-0.28 -0.96,-0.56 -1.4,-0.84 -0.45,-0.28 -0.89,-0.56 -1.31,-0.84 -1.66,-1.05 -3.21,-2.06 -4.68,-3.04 -0.35,-0.14 -0.65,-0.31 -0.87,-0.52 -0.24,-0.21 -0.5,-0.42 -0.78,-0.63l-0.21 -0.21c-0.56,-4.12 -0.11,-8.14 1.34,-12.06 1.47,-3.91 3.76,-7.23 6.87,-9.96 1.75,-1.54 3.67,-2.8 5.8,-3.77 2.11,-0.98 4.33,-1.64 6.64,-1.99 1.19,-0.14 2.38,-0.23 3.56,-0.26 1.19,-0.03 2.38,0.09 3.57,0.37 0.63,0.14 1.22,0.3 1.78,0.47 0.56,0.18 1.12,0.37 1.68,0.58 0.7,0.28 1.43,0.66 2.2,1.15 1.19,0.63 2.34,1.28 3.46,1.94 1.12,0.67 2.24,1.35 3.35,2.04 1.19,0.77 2.39,1.54 3.61,2.31 1.22,0.77 2.43,1.61 3.62,2.52 0.21,0.14 0.44,0.3 0.68,0.47 0.24,0.17 0.44,0.37 0.57,0.57 0.91,0.77 1.75,1.61 2.52,2.52 1.47,2.03 2.44,4.09 2.94,6.19zm38.67 21.07c0,0 0.07,0.07 0.21,0.21l-0.63 0 -10.27 0 -9.12 0c0,0 0.04,0.04 0.11,0.11l0 0.11 0 15.83 0 0.52 -0.42 0 -2.8 0 -9.78 0 -7.55 0 -2.31 0c-2.24,0.21 -4.3,0.84 -6.18,1.89 -1.4,0.7 -2.59,1.63 -3.57,2.78 -0.98,1.15 -1.78,2.43 -2.41,3.82 -0.35,0.98 -0.63,1.98 -0.84,2.99 -0.21,1.01 -0.39,2.04 -0.52,3.09 -0.07,1.05 -0.09,2.08 -0.05,3.09 0.03,1.01 0.19,2.01 0.47,2.99 0.63,2.8 1.85,5.24 3.67,7.33 2.24,0.7 4.58,1.14 7.02,1.31 2.44,0.17 4.82,-0.02 7.13,-0.57 -0.28,-0.91 -0.49,-1.8 -0.63,-2.67 -0.14,-0.87 -0.18,-1.8 -0.11,-2.78 0,-1.26 0.23,-2.55 0.68,-3.88 0.45,-1.33 1.38,-2.17 2.78,-2.52 0.56,-0.14 1.09,-0.17 1.57,-0.1 0.49,0.07 0.98,0.17 1.47,0.31 0.33,0.14 0.78,0.35 1.34,0.63 1.38,0.77 2.72,1.56 4,2.36 1.3,0.8 2.59,1.63 3.9,2.46 0.84,0.56 1.69,1.1 2.55,1.62 0.87,0.53 1.69,1.1 2.46,1.73l0.63 0.63c0.84,0.77 1.29,1.68 1.36,2.73 0.07,1.05 -0.17,2.06 -0.73,3.04 -0.77,1.19 -1.8,2.15 -3.09,2.88 -1.28,0.73 -2.62,1.28 -4,1.63 -0.42,0.14 -0.7,0.21 -0.84,0.21 0.49,1.74 1.22,3.49 2.19,5.24 0.98,1.89 2.06,3.7 3.28,5.45 1.22,1.75 2.54,3.46 3.93,5.14 0.63,0.77 1.28,1.54 1.94,2.31 0.67,0.77 1.38,1.54 2.15,2.3 -0.42,-0.14 -0.77,-0.28 -1.05,-0.42 -0.42,-0.28 -0.77,-0.49 -1.05,-0.63l-4.72 -2.83c-0.77,-0.56 -1.56,-1.06 -2.36,-1.52 -0.78,-0.45 -1.57,-0.96 -2.34,-1.52 -0.35,-0.21 -0.67,-0.42 -0.98,-0.63 -0.31,-0.21 -0.61,-0.45 -0.89,-0.73 -0.63,-0.7 -1.24,-1.4 -1.87,-2.09 -0.63,-0.7 -1.24,-1.43 -1.87,-2.2 -0.98,-1.19 -1.92,-2.39 -2.86,-3.62 -0.93,-1.22 -1.82,-2.53 -2.66,-3.93 -3.63,-0.42 -7.09,-1.43 -10.37,-3.04 -1.68,-0.91 -3.43,-1.89 -5.24,-2.94 -1.81,-1.12 -3.61,-2.24 -5.4,-3.35 -1.78,-1.12 -3.58,-2.31 -5.4,-3.56 -0.84,-0.56 -1.64,-1.17 -2.41,-1.83 -0.77,-0.66 -1.5,-1.38 -2.2,-2.15 -2.52,-2.65 -4.06,-5.73 -4.61,-9.22 -0.14,-1.05 -0.21,-2.13 -0.21,-3.25 0,-1.12 0.07,-2.2 0.21,-3.25 0.14,-0.98 0.35,-1.94 0.63,-2.88 0.28,-0.94 0.67,-1.87 1.15,-2.78 1.19,-2.24 2.87,-3.98 5.03,-5.24 2.17,-1.26 4.51,-1.96 7.02,-2.09 0.35,-0.07 0.73,-0.09 1.15,-0.06 0.42,0.04 0.81,0.06 1.15,0.06l8.28 0 9.43 0 2.3 0c0.07,0 0.11,-0.07 0.11,-0.21l0 -0.84 0 -7.23 -16.67 0 -16.87 0 -6.92 0c-0.14,-0.07 -0.3,-0.14 -0.47,-0.21 -0.18,-0.07 -0.33,-0.14 -0.47,-0.21 -0.14,-0.14 -0.31,-0.24 -0.52,-0.31 -0.21,-0.07 -0.39,-0.17 -0.52,-0.31 -0.84,-0.49 -1.66,-0.98 -2.46,-1.47 -0.8,-0.49 -1.59,-0.98 -2.36,-1.46 -0.77,-0.49 -1.54,-0.98 -2.31,-1.47 -0.77,-0.49 -1.54,-0.98 -2.3,-1.47 -0.35,-0.21 -0.65,-0.42 -0.89,-0.63 -0.24,-0.21 -0.5,-0.42 -0.78,-0.63 -0.07,0 -0.11,-0.02 -0.11,-0.05 0,-0.04 -0.04,-0.06 -0.11,-0.06l0.63 0 10.27 0 18.45 0 20.65 0 16.67 0 7.02 0c0.42,0.14 0.74,0.28 0.94,0.42 0.42,0.28 0.77,0.49 1.05,0.63l4.72 2.83c0.77,0.56 1.56,1.07 2.36,1.52 0.8,0.46 1.59,0.96 2.36,1.52 0.28,0.21 0.56,0.4 0.84,0.58 0.28,0.17 0.56,0.37 0.84,0.57zm73.27 0c0,0 0.04,0.07 0.11,0.21l-0.63 0 -10.59 0 -18.66 0 -20.54 0 -16.77 0 -6.92 0c-0.21,-0.07 -0.52,-0.24 -0.94,-0.52 -0.21,-0.14 -0.4,-0.24 -0.58,-0.31 -0.17,-0.07 -0.33,-0.14 -0.47,-0.21 -0.84,-0.49 -1.66,-0.98 -2.46,-1.47 -0.8,-0.49 -1.59,-0.98 -2.36,-1.46 -1.47,-0.91 -3.01,-1.92 -4.61,-3.04 -0.35,-0.14 -0.65,-0.31 -0.89,-0.52 -0.24,-0.21 -0.51,-0.42 -0.79,-0.63 0,0 -0.07,-0.07 -0.21,-0.21l0.73 0 10.59 0 18.56 0 20.65 0 16.67 0 6.92 0c0.28,0.07 0.63,0.24 1.05,0.52 0.42,0.28 0.77,0.49 1.05,0.63l4.72 2.83c0.77,0.56 1.56,1.07 2.36,1.52 0.8,0.46 1.59,0.96 2.36,1.52 0.28,0.14 0.54,0.31 0.79,0.52 0.24,0.21 0.54,0.42 0.89,0.63zm-17.4 22.01c0.28,0.21 0.56,0.4 0.84,0.57 0.28,0.18 0.56,0.37 0.84,0.58l0.21 0.21 -5.98 0 -19.7 0 -8.17 0c0.63,0.42 1.24,0.86 1.83,1.31 0.59,0.45 1.17,0.96 1.73,1.52 1.33,1.33 2.24,2.83 2.72,4.51 0.63,1.89 0.84,3.84 0.63,5.87 -0.21,2.02 -0.8,3.91 -1.78,5.66 -1.05,2.03 -2.53,3.78 -4.45,5.24 -1.92,1.47 -4.11,2.24 -6.55,2.31 -0.56,0 -1.08,-0.04 -1.57,-0.11 -0.49,-0.07 -1.01,-0.21 -1.57,-0.42 -0.7,-0.21 -1.26,-0.45 -1.68,-0.73 -1.61,-0.77 -3.15,-1.61 -4.61,-2.52 -1.47,-0.91 -2.94,-1.85 -4.41,-2.83 -1.68,-1.05 -3.33,-2.15 -4.98,-3.3 -1.64,-1.15 -2.85,-2.67 -3.62,-4.56 -1.05,-2.37 -1.38,-4.89 -1,-7.55 0.39,-2.65 1.35,-5.03 2.89,-7.13 0.77,-0.98 1.62,-1.87 2.57,-2.67 0.94,-0.8 2.01,-1.48 3.2,-2.04 0.56,-0.28 1.17,-0.47 1.83,-0.58 0.66,-0.1 1.31,-0.19 1.94,-0.26l5.98 0 19.6 0 11.85 0c0.42,0.14 0.73,0.28 0.94,0.42 0.14,0.14 0.31,0.25 0.52,0.31 0.21,0.07 0.39,0.18 0.53,0.31l4.72 2.83c0.77,0.56 1.55,1.07 2.36,1.52 0.8,0.45 1.59,0.96 2.36,1.52zm-39.1 9.43c0.77,-2.52 0.94,-5 0.52,-7.44 -1.61,0.56 -3.06,1.45 -4.35,2.67 -1.29,1.22 -2.36,2.6 -3.2,4.14 -0.84,1.54 -1.43,3.18 -1.78,4.93 -0.35,1.74 -0.35,3.46 0,5.13 2.09,-0.77 3.91,-2.01 5.45,-3.72 1.54,-1.71 2.66,-3.61 3.35,-5.71zm59.12 -31.24l-5.03 0 -13.1 0 0 6.92 0 17.19 0 20.65 0 17.19 0 7.33c-0.42,-0.14 -0.77,-0.31 -1.05,-0.52 -0.26,-0.14 -0.52,-0.26 -0.77,-0.37 -0.24,-0.11 -0.33,-0.16 -0.26,-0.16 -0.77,-0.49 -1.54,-0.96 -2.34,-1.41 -0.81,-0.46 -1.57,-0.96 -2.34,-1.52 -0.77,-0.49 -1.54,-0.98 -2.34,-1.47 -0.78,-0.49 -1.57,-0.98 -2.34,-1.47 -0.35,-0.21 -0.65,-0.42 -0.93,-0.63 -0.63,-0.35 -0.94,-0.59 -0.94,-0.73l0 -6.81 0 -17.19 0 -20.65 0 -16.35 -4.82 0c-0.14,-0.07 -0.3,-0.14 -0.47,-0.21 -0.18,-0.07 -0.33,-0.14 -0.47,-0.21 -0.14,-0.14 -0.31,-0.24 -0.52,-0.31 -0.21,-0.07 -0.39,-0.17 -0.52,-0.31 -1.82,-0.98 -3.43,-1.96 -4.82,-2.93 -0.77,-0.49 -1.54,-0.98 -2.31,-1.47 -0.77,-0.49 -1.54,-0.98 -2.31,-1.47 -0.35,-0.21 -0.65,-0.42 -0.89,-0.63 -0.24,-0.21 -0.51,-0.39 -0.79,-0.53 -0.14,-0.14 -0.21,-0.21 -0.21,-0.21l4.93 0 19.33 0 12 0c0.42,0.14 0.73,0.28 0.94,0.42 0.14,0.14 0.31,0.24 0.53,0.31 0.21,0.07 0.38,0.17 0.52,0.31 0.77,0.49 1.56,0.96 2.36,1.42 0.8,0.45 1.59,0.96 2.36,1.52 0.77,0.49 1.56,0.96 2.36,1.41 0.8,0.46 1.59,0.96 2.36,1.52 0.28,0.21 0.56,0.4 0.84,0.58 0.28,0.17 0.56,0.37 0.84,0.57l0.21 0.21zm-39.62 -14.04c0,0 0.07,0.07 0.21,0.21 -0.14,-0.14 -0.21,-0.21 -0.21,-0.21l-3.77 -3.46c-0.35,-0.35 -0.7,-0.68 -1.05,-1 -0.35,-0.31 -0.7,-0.65 -1.05,-0.99 -2.17,-2.03 -4.3,-4.02 -6.39,-5.98 -2.09,-1.96 -4.23,-3.91 -6.39,-5.87l-0.31 -0.31c-0.35,-0.28 -0.65,-0.54 -0.89,-0.78 -0.24,-0.25 -0.54,-0.51 -0.89,-0.79 -0.84,-0.77 -1.7,-1.57 -2.57,-2.41 -0.87,-0.84 -1.73,-1.64 -2.57,-2.41 -0.49,-0.42 -0.98,-0.85 -1.46,-1.31 -0.49,-0.45 -0.98,-0.89 -1.47,-1.31 -0.35,-0.35 -0.7,-0.7 -1.05,-1.05 -0.35,-0.35 -0.7,-0.73 -1.05,-1.15 -0.49,-0.49 -0.96,-1.07 -1.41,-1.73 -0.45,-0.66 -0.82,-1.36 -1.1,-2.09 -0.28,-0.73 -0.47,-1.47 -0.57,-2.2 -0.11,-0.74 -0.02,-1.48 0.26,-2.26 0,0 0.03,-0.07 0.1,-0.21 0.35,-0.84 0.89,-1.5 1.63,-1.99 0.73,-0.49 1.56,-0.85 2.46,-1.1 0.91,-0.24 1.83,-0.39 2.78,-0.42 0.94,-0.04 1.8,-0.05 2.57,-0.05 0.42,0.14 0.77,0.28 1.05,0.42 0.42,0.28 0.77,0.49 1.05,0.63l4.72 2.83c0.77,0.56 1.56,1.07 2.36,1.52 0.8,0.45 1.59,0.96 2.36,1.52 0.28,0.21 0.54,0.4 0.78,0.58 0.25,0.17 0.54,0.37 0.89,0.57 0,0 0.07,0.07 0.21,0.21l-2.31 0c-1.33,0.14 -2.71,0.44 -4.14,0.89 -1.43,0.46 -2.43,1.31 -2.99,2.57 -0.14,0.21 -0.23,0.44 -0.26,0.68 -0.04,0.24 -0.09,0.47 -0.16,0.68 -0.14,1.61 0.23,3.15 1.1,4.61 0.87,1.47 1.87,2.72 2.99,3.78 0.7,0.7 1.38,1.34 2.04,1.94 0.66,0.59 1.38,1.24 2.15,1.94 1.12,0.98 2.22,1.99 3.3,3.04 1.08,1.05 2.19,2.06 3.3,3.04 2.44,2.31 4.91,4.59 7.39,6.87 2.48,2.27 4.94,4.56 7.39,6.86 0.14,0.07 0.28,0.18 0.42,0.31 0.63,0.56 1.24,1.12 1.83,1.68 0.59,0.56 1.17,1.12 1.73,1.68l-13 -7.96zm139.51 -7.23c0.7,2.65 0.73,5.35 0.1,8.07 -0.63,2.72 -1.85,5.1 -3.67,7.13 0,0.07 -0.12,0.06 -0.37,-0.05 -0.24,-0.11 -0.5,-0.23 -0.78,-0.37 -0.28,-0.14 -0.51,-0.28 -0.68,-0.42 -0.18,-0.14 -0.26,-0.21 -0.26,-0.21l-4.72 -2.83c-0.77,-0.56 -1.56,-1.06 -2.36,-1.52 -0.8,-0.45 -1.59,-0.96 -2.36,-1.52 0.07,0 0,-0.05 -0.21,-0.16 -0.21,-0.1 -0.44,-0.24 -0.68,-0.42 -0.25,-0.18 -0.46,-0.35 -0.63,-0.52 -0.18,-0.18 -0.26,-0.26 -0.26,-0.26 1.54,-1.81 2.66,-3.84 3.35,-6.08 0.7,-2.24 0.91,-4.51 0.63,-6.81 -0.35,-2.52 -1.12,-4.78 -2.31,-6.81 -2.44,-0.21 -4.87,0.02 -7.28,0.68 -2.41,0.67 -4.63,1.59 -6.66,2.78 -1.96,1.19 -3.74,2.62 -5.34,4.3 -1.61,1.68 -2.9,3.53 -3.88,5.56 -2.03,3.98 -2.94,8.14 -2.73,12.47l5.66 0c0.42,0.14 0.73,0.28 0.94,0.42 0.14,0.14 0.31,0.24 0.52,0.31 0.21,0.07 0.38,0.17 0.52,0.31 0.77,0.49 1.56,0.96 2.36,1.42 0.8,0.45 1.59,0.96 2.36,1.52 0.77,0.49 1.56,0.96 2.36,1.41 0.8,0.46 1.59,0.96 2.36,1.52 0.28,0.21 0.56,0.4 0.84,0.58 0.28,0.17 0.56,0.37 0.84,0.57l0.21 0.21 -5.03 0 -13.1 0 0 6.92 0 17.19 0 20.65 0 24.53 0 7.34c-0.42,-0.14 -0.77,-0.31 -1.05,-0.52 -0.26,-0.14 -0.52,-0.26 -0.77,-0.37 -0.24,-0.11 -0.33,-0.16 -0.26,-0.16 -0.77,-0.49 -1.54,-0.96 -2.34,-1.42 -0.8,-0.45 -1.57,-0.96 -2.34,-1.52 -0.77,-0.49 -1.54,-0.98 -2.34,-1.47 -0.79,-0.49 -1.57,-0.98 -2.34,-1.46 -0.35,-0.21 -0.65,-0.42 -0.93,-0.63 -0.63,-0.35 -0.94,-0.59 -0.94,-0.73l0 -14.15 0 -17.19 0 -20.65 0 -16.35 -4.82 0c-0.14,-0.07 -0.3,-0.14 -0.47,-0.21 -0.18,-0.07 -0.33,-0.14 -0.47,-0.21 -0.14,-0.14 -0.31,-0.24 -0.52,-0.31 -0.21,-0.07 -0.39,-0.17 -0.52,-0.31 -1.82,-0.98 -3.43,-1.96 -4.82,-2.93 -0.77,-0.49 -1.54,-0.98 -2.31,-1.47 -0.77,-0.49 -1.54,-0.98 -2.3,-1.47 -0.35,-0.21 -0.65,-0.42 -0.89,-0.63 -0.24,-0.21 -0.5,-0.39 -0.78,-0.53 -0.14,-0.14 -0.21,-0.21 -0.21,-0.21l4.93 0 19.34 0 2.5 0c-0.49,-0.28 -0.96,-0.56 -1.4,-0.84 -0.45,-0.28 -0.89,-0.56 -1.31,-0.84 -1.66,-1.05 -3.21,-2.06 -4.68,-3.04 -0.35,-0.14 -0.65,-0.31 -0.87,-0.52 -0.24,-0.21 -0.5,-0.42 -0.78,-0.63l-0.21 -0.21c-0.56,-4.12 -0.11,-8.14 1.34,-12.06 1.47,-3.91 3.76,-7.23 6.87,-9.96 1.75,-1.54 3.67,-2.8 5.8,-3.77 2.11,-0.98 4.33,-1.64 6.64,-1.99 1.19,-0.14 2.38,-0.23 3.56,-0.26 1.19,-0.03 2.38,0.09 3.57,0.37 0.63,0.14 1.22,0.3 1.78,0.47 0.56,0.18 1.12,0.37 1.68,0.58 0.7,0.28 1.43,0.66 2.2,1.15 1.19,0.63 2.34,1.28 3.46,1.94 1.12,0.67 2.24,1.35 3.35,2.04 1.19,0.77 2.39,1.54 3.61,2.31 1.22,0.77 2.43,1.61 3.62,2.52 0.21,0.14 0.44,0.3 0.68,0.47 0.24,0.17 0.44,0.37 0.57,0.57 0.91,0.77 1.75,1.61 2.52,2.52 1.47,2.03 2.44,4.09 2.94,6.19zm38.67 21.07c0,0 0.07,0.07 0.21,0.21l-0.63 0 -10.27 0 -9.12 0c0,0 0.04,0.04 0.11,0.11l0 0.11 0 15.83 0 0.52 -0.42 0 -2.8 0 -9.78 0 -7.55 0 -2.31 0c-2.24,0.21 -4.3,0.84 -6.18,1.89 -1.4,0.7 -2.59,1.63 -3.57,2.78 -0.98,1.15 -1.78,2.43 -2.41,3.82 -0.35,0.98 -0.63,1.98 -0.84,2.99 -0.21,1.01 -0.39,2.04 -0.52,3.09 -0.07,1.05 -0.09,2.08 -0.05,3.09 0.03,1.01 0.19,2.01 0.47,2.99 0.63,2.8 1.85,5.24 3.67,7.33 2.24,0.7 4.58,1.14 7.02,1.31 2.44,0.17 4.82,-0.02 7.13,-0.57 -0.28,-0.91 -0.49,-1.8 -0.63,-2.67 -0.14,-0.87 -0.18,-1.8 -0.11,-2.78 0,-1.26 0.23,-2.55 0.68,-3.88 0.45,-1.33 1.38,-2.17 2.78,-2.52 0.56,-0.14 1.09,-0.17 1.57,-0.1 0.49,0.07 0.98,0.17 1.47,0.31 0.33,0.14 0.78,0.35 1.34,0.63 1.38,0.77 2.72,1.56 4,2.36 1.3,0.8 2.59,1.63 3.9,2.46 0.84,0.56 1.69,1.1 2.55,1.62 0.87,0.53 1.69,1.1 2.46,1.73l0.63 0.63c0.84,0.77 1.29,1.68 1.36,2.73 0.07,1.05 -0.17,2.06 -0.73,3.04 -0.77,1.19 -1.8,2.15 -3.09,2.88 -1.28,0.73 -2.62,1.28 -4,1.63 -0.42,0.14 -0.7,0.21 -0.84,0.21 0.49,1.74 1.22,3.49 2.19,5.24 0.98,1.89 2.06,3.7 3.28,5.45 1.22,1.75 2.54,3.46 3.93,5.14 0.63,0.77 1.28,1.54 1.94,2.31 0.67,0.77 1.38,1.54 2.15,2.3 -0.42,-0.14 -0.77,-0.28 -1.05,-0.42 -0.42,-0.28 -0.77,-0.49 -1.05,-0.63l-4.72 -2.83c-0.77,-0.56 -1.56,-1.06 -2.36,-1.52 -0.78,-0.45 -1.57,-0.96 -2.34,-1.52 -0.35,-0.21 -0.67,-0.42 -0.98,-0.63 -0.31,-0.21 -0.61,-0.45 -0.89,-0.73 -0.63,-0.7 -1.24,-1.4 -1.87,-2.09 -0.63,-0.7 -1.24,-1.43 -1.87,-2.2 -0.98,-1.19 -1.92,-2.39 -2.86,-3.62 -0.93,-1.22 -1.82,-2.53 -2.66,-3.93 -3.63,-0.42 -7.09,-1.43 -10.37,-3.04 -1.68,-0.91 -3.43,-1.89 -5.24,-2.94 -1.81,-1.12 -3.61,-2.24 -5.4,-3.35 -1.78,-1.12 -3.58,-2.31 -5.4,-3.56 -0.84,-0.56 -1.64,-1.17 -2.41,-1.83 -0.77,-0.66 -1.5,-1.38 -2.2,-2.15 -2.52,-2.65 -4.06,-5.73 -4.61,-9.22 -0.14,-1.05 -0.21,-2.13 -0.21,-3.25 0,-1.12 0.07,-2.2 0.21,-3.25 0.14,-0.98 0.35,-1.94 0.63,-2.88 0.28,-0.94 0.67,-1.87 1.15,-2.78 1.19,-2.24 2.87,-3.98 5.03,-5.24 2.17,-1.26 4.51,-1.96 7.02,-2.09 0.35,-0.07 0.73,-0.09 1.15,-0.06 0.42,0.04 0.81,0.06 1.15,0.06l8.28 0 9.43 0 2.3 0c0.07,0 0.11,-0.07 0.11,-0.21l0 -0.84 0 -7.23 -16.67 0 -16.87 0 -6.92 0c-0.14,-0.07 -0.3,-0.14 -0.47,-0.21 -0.18,-0.07 -0.33,-0.14 -0.47,-0.21 -0.14,-0.14 -0.31,-0.24 -0.52,-0.31 -0.21,-0.07 -0.39,-0.17 -0.52,-0.31 -0.84,-0.49 -1.66,-0.98 -2.46,-1.47 -0.8,-0.49 -1.59,-0.98 -2.36,-1.46 -0.77,-0.49 -1.54,-0.98 -2.31,-1.47 -0.77,-0.49 -1.54,-0.98 -2.3,-1.47 -0.35,-0.21 -0.65,-0.42 -0.89,-0.63 -0.24,-0.21 -0.5,-0.42 -0.78,-0.63 -0.07,0 -0.11,-0.02 -0.11,-0.05 0,-0.04 -0.04,-0.06 -0.11,-0.06l0.63 0 10.27 0 18.45 0 20.65 0 16.67 0 7.02 0c0.42,0.14 0.74,0.28 0.94,0.42 0.42,0.28 0.77,0.49 1.05,0.63l4.72 2.83c0.77,0.56 1.56,1.07 2.36,1.52 0.8,0.46 1.59,0.96 2.36,1.52 0.28,0.21 0.56,0.4 0.84,0.58 0.28,0.17 0.56,0.37 0.84,0.57zm73.27 0c0,0 0.04,0.07 0.11,0.21l-0.63 0 -10.59 0 -18.66 0 -20.54 0 -16.77 0 -6.92 0c-0.21,-0.07 -0.52,-0.24 -0.94,-0.52 -0.21,-0.14 -0.4,-0.24 -0.58,-0.31 -0.17,-0.07 -0.33,-0.14 -0.47,-0.21 -0.84,-0.49 -1.66,-0.98 -2.46,-1.47 -0.8,-0.49 -1.59,-0.98 -2.36,-1.46 -1.47,-0.91 -3.01,-1.92 -4.61,-3.04 -0.35,-0.14 -0.65,-0.31 -0.89,-0.52 -0.24,-0.21 -0.51,-0.42 -0.79,-0.63 0,0 -0.07,-0.07 -0.21,-0.21l0.73 0 10.59 0 18.56 0 20.65 0 16.67 0 6.92 0c0.28,0.07 0.63,0.24 1.05,0.52 0.42,0.28 0.77,0.49 1.05,0.63l4.72 2.83c0.77,0.56 1.56,1.07 2.36,1.52 0.8,0.46 1.59,0.96 2.36,1.52 0.28,0.14 0.54,0.31 0.79,0.52 0.24,0.21 0.54,0.42 0.89,0.63zm-17.4 22.01c0.28,0.21 0.56,0.4 0.84,0.57 0.28,0.18 0.56,0.37 0.84,0.58l0.21 0.21 -5.98 0 -19.7 0 -8.17 0c0.63,0.42 1.24,0.86 1.83,1.31 0.59,0.45 1.17,0.96 1.73,1.52 1.33,1.33 2.24,2.83 2.72,4.51 0.63,1.89 0.84,3.84 0.63,5.87 -0.21,2.02 -0.8,3.91 -1.78,5.66 -1.05,2.03 -2.53,3.78 -4.45,5.24 -1.92,1.47 -4.11,2.24 -6.55,2.31 -0.56,0 -1.08,-0.04 -1.57,-0.11 -0.49,-0.07 -1.01,-0.21 -1.57,-0.42 -0.7,-0.21 -1.26,-0.45 -1.68,-0.73 -1.61,-0.77 -3.15,-1.61 -4.61,-2.52 -1.47,-0.91 -2.94,-1.85 -4.41,-2.83 -1.68,-1.05 -3.33,-2.15 -4.98,-3.3 -1.64,-1.15 -2.85,-2.67 -3.62,-4.56 -1.05,-2.37 -1.38,-4.89 -1,-7.55 0.39,-2.65 1.35,-5.03 2.89,-7.13 0.77,-0.98 1.62,-1.87 2.57,-2.67 0.94,-0.8 2.01,-1.48 3.2,-2.04 0.56,-0.28 1.17,-0.47 1.83,-0.58 0.66,-0.1 1.31,-0.19 1.94,-0.26l5.98 0 19.6 0 11.85 0c0.42,0.14 0.73,0.28 0.94,0.42 0.14,0.14 0.31,0.25 0.52,0.31 0.21,0.07 0.39,0.18 0.53,0.31l4.72 2.83c0.77,0.56 1.55,1.07 2.36,1.52 0.8,0.45 1.59,0.96 2.36,1.52zm-39.1 9.43c0.77,-2.52 0.94,-5 0.52,-7.44 -1.61,0.56 -3.06,1.45 -4.35,2.67 -1.29,1.22 -2.36,2.6 -3.2,4.14 -0.84,1.54 -1.43,3.18 -1.78,4.93 -0.35,1.74 -0.35,3.46 0,5.13 2.09,-0.77 3.91,-2.01 5.45,-3.72 1.54,-1.71 2.66,-3.61 3.35,-5.71z"/>
    <path class="fil0" d="M1250.21 235.78l-5.03 0 -13.1 0 0 6.92 0 17.19 0 20.65 0 17.19 0 7.33c-0.42,-0.14 -0.77,-0.31 -1.05,-0.52 -0.26,-0.14 -0.52,-0.26 -0.77,-0.37 -0.24,-0.11 -0.33,-0.16 -0.26,-0.16 -0.77,-0.49 -1.54,-0.96 -2.34,-1.41 -0.81,-0.46 -1.57,-0.96 -2.34,-1.52 -0.77,-0.49 -1.54,-0.98 -2.34,-1.47 -0.78,-0.49 -1.57,-0.98 -2.34,-1.47 -0.35,-0.21 -0.65,-0.42 -0.93,-0.63 -0.63,-0.35 -0.94,-0.59 -0.94,-0.73l0 -6.81 0 -17.19 0 -20.65 0 -16.35 -4.82 0c-0.14,-0.07 -0.3,-0.14 -0.47,-0.21 -0.18,-0.07 -0.33,-0.14 -0.47,-0.21 -0.14,-0.14 -0.31,-0.24 -0.52,-0.31 -0.21,-0.07 -0.39,-0.17 -0.52,-0.31 -1.82,-0.98 -3.43,-1.96 -4.82,-2.93 -0.77,-0.49 -1.54,-0.98 -2.31,-1.47 -0.77,-0.49 -1.54,-0.98 -2.31,-1.47 -0.35,-0.21 -0.65,-0.42 -0.89,-0.63 -0.24,-0.21 -0.51,-0.39 -0.79,-0.53 -0.14,-0.14 -0.21,-0.21 -0.21,-0.21l4.93 0 19.33 0 12 0c0.42,0.14 0.73,0.28 0.94,0.42 0.14,0.14 0.31,0.24 0.53,0.31 0.21,0.07 0.38,0.17 0.52,0.31 0.77,0.49 1.56,0.96 2.36,1.42 0.8,0.45 1.59,0.96 2.36,1.52 0.77,0.49 1.56,0.96 2.36,1.41 0.8,0.46 1.59,0.96 2.36,1.52 0.28,0.21 0.56,0.4 0.84,0.58 0.28,0.17 0.56,0.37 0.84,0.57l0.21 0.21zm-39.62 -14.04c0,0 0.07,0.07 0.21,0.21 -0.14,-0.14 -0.21,-0.21 -0.21,-0.21l-3.77 -3.46c-0.35,-0.35 -0.7,-0.68 -1.05,-1 -0.35,-0.31 -0.7,-0.65 -1.05,-0.99 -2.17,-2.03 -4.3,-4.02 -6.39,-5.98 -2.09,-1.96 -4.23,-3.91 -6.39,-5.87l-0.31 -0.31c-0.35,-0.28 -0.65,-0.54 -0.89,-0.78 -0.24,-0.25 -0.54,-0.51 -0.89,-0.79 -0.84,-0.77 -1.7,-1.57 -2.57,-2.41 -0.87,-0.84 -1.73,-1.64 -2.57,-2.41 -0.49,-0.42 -0.98,-0.85 -1.46,-1.31 -0.49,-0.45 -0.98,-0.89 -1.47,-1.31 -0.35,-0.35 -0.7,-0.7 -1.05,-1.05 -0.35,-0.35 -0.7,-0.73 -1.05,-1.15 -0.49,-0.49 -0.96,-1.07 -1.41,-1.73 -0.45,-0.66 -0.82,-1.36 -1.1,-2.09 -0.28,-0.73 -0.47,-1.47 -0.57,-2.2 -0.11,-0.74 -0.02,-1.48 0.26,-2.26 0,0 0.03,-0.07 0.1,-0.21 0.35,-0.84 0.89,-1.5 1.63,-1.99 0.73,-0.49 1.56,-0.85 2.46,-1.1 0.91,-0.24 1.83,-0.39 2.78,-0.42 0.94,-0.04 1.8,-0.05 2.57,-0.05 0.42,0.14 0.77,0.28 1.05,0.42 0.42,0.28 0.77,0.49 1.05,0.63l4.72 2.83c0.77,0.56 1.56,1.07 2.36,1.52 0.8,0.45 1.59,0.96 2.36,1.52 0.28,0.21 0.54,0.4 0.78,0.58 0.25,0.17 0.54,0.37 0.89,0.57 0,0 0.07,0.07 0.21,0.21l-2.31 0c-1.33,0.14 -2.71,0.44 -4.14,0.89 -1.43,0.46 -2.43,1.31 -2.99,2.57 -0.14,0.21 -0.23,0.44 -0.26,0.68 -0.04,0.24 -0.09,0.47 -0.16,0.68 -0.14,1.61 0.23,3.15 1.1,4.61 0.87,1.47 1.87,2.72 2.99,3.78 0.7,0.7 1.38,1.34 2.04,1.94 0.66,0.59 1.38,1.24 2.15,1.94 1.12,0.98 2.22,1.99 3.3,3.04 1.08,1.05 2.19,2.06 3.3,3.04 2.44,2.31 4.91,4.59 7.39,6.87 2.48,2.27 4.94,4.56 7.39,6.86 0.14,0.07 0.28,0.18 0.42,0.31 0.63,0.56 1.24,1.12 1.83,1.68 0.59,0.56 1.17,1.12 1.73,1.68l-13 -7.96zm164.14 13.83c0,0 0.04,0.07 0.11,0.21l-0.63 0 -10.59 0 -18.66 0 -20.54 0 -16.77 0 -6.92 0c-0.21,-0.07 -0.52,-0.24 -0.94,-0.52 -0.21,-0.14 -0.4,-0.24 -0.58,-0.31 -0.17,-0.07 -0.33,-0.14 -0.47,-0.21 -0.84,-0.49 -1.66,-0.98 -2.46,-1.47 -0.8,-0.49 -1.59,-0.98 -2.36,-1.46 -1.47,-0.91 -3.01,-1.92 -4.61,-3.04 -0.35,-0.14 -0.65,-0.31 -0.89,-0.52 -0.24,-0.21 -0.51,-0.42 -0.79,-0.63 0,0 -0.07,-0.07 -0.21,-0.21l0.73 0 10.59 0 18.56 0 20.65 0 16.67 0 6.92 0c0.28,0.07 0.63,0.24 1.05,0.52 0.42,0.28 0.77,0.49 1.05,0.63l4.72 2.83c0.77,0.56 1.56,1.07 2.36,1.52 0.8,0.46 1.59,0.96 2.36,1.52 0.28,0.14 0.54,0.31 0.79,0.52 0.24,0.21 0.54,0.42 0.89,0.63zm-17.4 22.01c0.28,0.21 0.56,0.4 0.84,0.57 0.28,0.18 0.56,0.37 0.84,0.58l0.21 0.21 -5.98 0 -19.7 0 -8.17 0c0.63,0.42 1.24,0.86 1.83,1.31 0.59,0.45 1.17,0.96 1.73,1.52 1.33,1.33 2.24,2.83 2.72,4.51 0.63,1.89 0.84,3.84 0.63,5.87 -0.21,2.02 -0.8,3.91 -1.78,5.66 -1.05,2.03 -2.53,3.78 -4.45,5.24 -1.92,1.47 -4.11,2.24 -6.55,2.31 -0.56,0 -1.08,-0.04 -1.57,-0.11 -0.49,-0.07 -1.01,-0.21 -1.57,-0.42 -0.7,-0.21 -1.26,-0.45 -1.68,-0.73 -1.61,-0.77 -3.15,-1.61 -4.61,-2.52 -1.47,-0.91 -2.94,-1.85 -4.41,-2.83 -1.68,-1.05 -3.33,-2.15 -4.98,-3.3 -1.64,-1.15 -2.85,-2.67 -3.62,-4.56 -1.05,-2.37 -1.38,-4.89 -1,-7.55 0.39,-2.65 1.35,-5.03 2.89,-7.13 0.77,-0.98 1.62,-1.87 2.57,-2.67 0.94,-0.8 2.01,-1.48 3.2,-2.04 0.56,-0.28 1.17,-0.47 1.83,-0.58 0.66,-0.1 1.31,-0.19 1.94,-0.26l5.98 0 19.6 0 11.85 0c0.42,0.14 0.73,0.28 0.94,0.42 0.14,0.14 0.31,0.25 0.52,0.31 0.21,0.07 0.39,0.18 0.53,0.31l4.72 2.83c0.77,0.56 1.55,1.07 2.36,1.52 0.8,0.45 1.59,0.96 2.36,1.52zm-39.1 9.43c0.77,-2.52 0.94,-5 0.52,-7.44 -1.61,0.56 -3.06,1.45 -4.35,2.67 -1.29,1.22 -2.36,2.6 -3.2,4.14 -0.84,1.54 -1.43,3.18 -1.78,4.93 -0.35,1.74 -0.35,3.46 0,5.13 2.09,-0.77 3.91,-2.01 5.45,-3.72 1.54,-1.71 2.66,-3.61 3.35,-5.71zm59.12 -31.24l-5.03 0 -13.1 0 0 6.92 0 17.19 0 20.65 0 17.19 0 7.33c-0.42,-0.14 -0.77,-0.31 -1.05,-0.52 -0.26,-0.14 -0.52,-0.26 -0.77,-0.37 -0.24,-0.11 -0.33,-0.16 -0.26,-0.16 -0.77,-0.49 -1.54,-0.96 -2.34,-1.41 -0.81,-0.46 -1.57,-0.96 -2.34,-1.52 -0.77,-0.49 -1.54,-0.98 -2.34,-1.47 -0.78,-0.49 -1.57,-0.98 -2.34,-1.47 -0.35,-0.21 -0.65,-0.42 -0.93,-0.63 -0.63,-0.35 -0.94,-0.59 -0.94,-0.73l0 -6.81 0 -17.19 0 -20.65 0 -16.35 -4.82 0c-0.14,-0.07 -0.3,-0.14 -0.47,-0.21 -0.18,-0.07 -0.33,-0.14 -0.47,-0.21 -0.14,-0.14 -0.31,-0.24 -0.52,-0.31 -0.21,-0.07 -0.39,-0.17 -0.52,-0.31 -1.82,-0.98 -3.43,-1.96 -4.82,-2.93 -0.77,-0.49 -1.54,-0.98 -2.31,-1.47 -0.77,-0.49 -1.54,-0.98 -2.31,-1.47 -0.35,-0.21 -0.65,-0.42 -0.89,-0.63 -0.24,-0.21 -0.51,-0.39 -0.79,-0.53 -0.14,-0.14 -0.21,-0.21 -0.21,-0.21l4.93 0 19.33 0 12 0c0.42,0.14 0.73,0.28 0.94,0.42 0.14,0.14 0.31,0.24 0.53,0.31 0.21,0.07 0.38,0.17 0.52,0.31 0.77,0.49 1.56,0.96 2.36,1.42 0.8,0.45 1.59,0.96 2.36,1.52 0.77,0.49 1.56,0.96 2.36,1.41 0.8,0.46 1.59,0.96 2.36,1.52 0.28,0.21 0.56,0.4 0.84,0.58 0.28,0.17 0.56,0.37 0.84,0.57l0.21 0.21zm38.78 19.71c1.68,1.68 2.94,3.63 3.78,5.87 1.05,2.73 1.43,5.42 1.15,8.07 -0.14,2.31 -0.73,4.51 -1.78,6.61 -1.05,2.09 -2.44,3.94 -4.19,5.56 -1.82,1.61 -3.86,2.88 -6.13,3.82 -2.27,0.94 -4.63,1.45 -7.07,1.52 -2.52,0 -4.85,-0.42 -7.02,-1.26 -0.84,-0.35 -1.64,-0.72 -2.41,-1.1 -0.77,-0.38 -1.54,-0.78 -2.3,-1.2 -1.54,-0.91 -3.06,-1.81 -4.56,-2.72 -1.5,-0.91 -2.99,-1.85 -4.46,-2.83 -0.7,-0.49 -1.38,-0.94 -2.04,-1.36 -0.67,-0.42 -1.35,-0.87 -2.04,-1.36 -1.89,-1.47 -3.46,-3.23 -4.72,-5.29 -1.26,-2.06 -2.06,-4.28 -2.41,-6.66 -0.35,-2.31 -0.24,-4.59 0.31,-6.87 0.56,-2.27 1.54,-4.35 2.94,-6.24 1.4,-2.03 3.11,-3.7 5.13,-5.03 2.03,-1.33 4.23,-2.27 6.6,-2.83 2.45,-0.63 4.82,-0.73 7.13,-0.31 1.33,0.14 2.59,0.43 3.77,0.89 1.19,0.45 2.38,1 3.56,1.63 1.19,0.63 2.34,1.29 3.46,1.99 1.12,0.7 2.27,1.4 3.46,2.1 1.12,0.7 2.24,1.4 3.35,2.09 1.11,0.7 2.2,1.43 3.25,2.2 0.56,0.42 1.1,0.84 1.62,1.26 0.53,0.42 1.07,0.91 1.63,1.47zm-9.75 11.21c0.91,-2.24 1.38,-4.51 1.42,-6.81 0.03,-2.31 -0.37,-4.58 -1.21,-6.81 -0.21,-0.56 -0.43,-1.06 -0.68,-1.52 -0.24,-0.45 -0.5,-0.93 -0.78,-1.41 -3.15,-0.42 -6.24,-0.09 -9.28,1 -3.04,1.08 -5.65,2.81 -7.81,5.19 -1.61,1.74 -2.83,3.7 -3.67,5.87 -0.84,2.17 -1.26,4.41 -1.26,6.71 0,3.5 0.91,6.67 2.72,9.54 3.78,0.42 7.41,-0.17 10.9,-1.78 2.17,-0.98 4.09,-2.32 5.76,-4.04 1.68,-1.71 2.97,-3.69 3.88,-5.92zm32.81 -30.92l-6.19 0 -16.77 0 -20.76 0 -17.5 0 -7.33 0c-0.21,-0.07 -0.52,-0.24 -0.94,-0.52 -0.35,-0.21 -0.7,-0.38 -1.05,-0.52 -0.84,-0.56 -1.66,-1.06 -2.46,-1.52 -0.8,-0.45 -1.59,-0.93 -2.36,-1.41 -1.46,-0.91 -3,-1.92 -4.61,-3.04 -0.35,-0.14 -0.65,-0.31 -0.89,-0.52 -0.25,-0.21 -0.51,-0.42 -0.79,-0.63 0,0 -0.07,-0.07 -0.21,-0.21l6.08 0 16.87 0 20.65 0 17.5 0 7.33 0c0.35,0.07 0.67,0.24 0.94,0.52 0.21,0.14 0.4,0.24 0.57,0.31 0.18,0.07 0.37,0.17 0.58,0.31 0.77,0.42 1.56,0.87 2.36,1.37 0.8,0.49 1.59,0.98 2.36,1.46 0.77,0.56 1.56,1.07 2.36,1.52 0.8,0.46 1.59,0.96 2.36,1.52 0.63,0.35 1.19,0.74 1.68,1.15l0.21 0.21zm-0.42 0l-5.03 0 -13.1 0 0 6.92 0 17.19 0 20.65 0 17.19 0 7.33c-0.42,-0.14 -0.77,-0.31 -1.05,-0.52 -0.26,-0.14 -0.52,-0.26 -0.77,-0.37 -0.24,-0.11 -0.33,-0.16 -0.26,-0.16 -0.77,-0.49 -1.54,-0.96 -2.34,-1.41 -0.81,-0.46 -1.57,-0.96 -2.34,-1.52 -0.77,-0.49 -1.54,-0.98 -2.34,-1.47 -0.78,-0.49 -1.57,-0.98 -2.34,-1.47 -0.35,-0.21 -0.65,-0.42 -0.93,-0.63 -0.63,-0.35 -0.94,-0.59 -0.94,-0.73l0 -6.81 0 -17.19 0 -20.65 0 -16.35 -4.82 0c-0.14,-0.07 -0.3,-0.14 -0.47,-0.21 -0.18,-0.07 -0.33,-0.14 -0.47,-0.21 -0.14,-0.14 -0.31,-0.24 -0.52,-0.31 -0.21,-0.07 -0.39,-0.17 -0.52,-0.31 -1.82,-0.98 -3.43,-1.96 -4.82,-2.93 -0.77,-0.49 -1.54,-0.98 -2.31,-1.47 -0.77,-0.49 -1.54,-0.98 -2.31,-1.47 -0.35,-0.21 -0.65,-0.42 -0.89,-0.63 -0.24,-0.21 -0.51,-0.39 -0.79,-0.53 -0.14,-0.14 -0.21,-0.21 -0.21,-0.21l4.93 0 19.33 0 12 0c0.42,0.14 0.73,0.28 0.94,0.42 0.14,0.14 0.31,0.24 0.53,0.31 0.21,0.07 0.38,0.17 0.52,0.31 0.77,0.49 1.56,0.96 2.36,1.42 0.8,0.45 1.59,0.96 2.36,1.52 0.77,0.49 1.56,0.96 2.36,1.41 0.8,0.46 1.59,0.96 2.36,1.52 0.28,0.21 0.56,0.4 0.84,0.58 0.28,0.17 0.56,0.37 0.84,0.57l0.21 0.21zm-18.03 -25.99c0.91,0.77 1.63,1.68 2.15,2.72 0.52,1.05 0.79,2.17 0.79,3.35 0,2.03 -0.73,3.81 -2.2,5.35 -1.47,1.54 -3.25,2.31 -5.35,2.31 -0.91,0 -1.96,-0.18 -3.15,-0.53 -0.35,-0.14 -0.72,-0.33 -1.1,-0.57 -0.39,-0.24 -0.75,-0.47 -1.1,-0.68 -1.19,-0.63 -2.34,-1.29 -3.46,-1.99 -1.12,-0.7 -2.24,-1.43 -3.35,-2.2 -0.98,-0.7 -1.85,-1.45 -2.62,-2.25 -0.77,-0.8 -1.33,-1.8 -1.68,-2.99 -0.35,-1.19 -0.42,-2.36 -0.21,-3.51 0.21,-1.15 0.7,-2.22 1.47,-3.2 0.77,-0.91 1.66,-1.64 2.67,-2.2 1.01,-0.56 2.11,-0.84 3.3,-0.84 1.33,0 2.52,0.24 3.56,0.73 0.91,0.42 1.8,0.91 2.67,1.47 0.87,0.56 1.73,1.12 2.57,1.68 0.84,0.56 1.69,1.08 2.57,1.57 0.87,0.49 1.69,1.08 2.46,1.78zm-9.12 6.71c2.1,-1.54 3.15,-3.6 3.15,-6.19 0,-0.35 -0.02,-0.68 -0.05,-1 -0.04,-0.31 -0.09,-0.65 -0.16,-1 -1.05,0.21 -2.03,0.59 -2.94,1.15 -0.91,0.56 -1.64,1.33 -2.2,2.31 -1.12,1.89 -1.4,3.91 -0.84,6.08 1.05,-0.21 2.06,-0.67 3.04,-1.36zm152.19 19.07c0,0 0.04,0.07 0.11,0.21l-0.63 0 -10.59 0 -18.66 0 -20.54 0 -16.77 0 -6.92 0c-0.21,-0.07 -0.52,-0.24 -0.94,-0.52 -0.21,-0.14 -0.4,-0.24 -0.58,-0.31 -0.17,-0.07 -0.33,-0.14 -0.47,-0.21 -0.84,-0.49 -1.66,-0.98 -2.46,-1.47 -0.8,-0.49 -1.59,-0.98 -2.36,-1.46 -1.47,-0.91 -3.01,-1.92 -4.61,-3.04 -0.35,-0.14 -0.65,-0.31 -0.89,-0.52 -0.24,-0.21 -0.51,-0.42 -0.79,-0.63 0,0 -0.07,-0.07 -0.21,-0.21l0.73 0 10.59 0 18.56 0 20.65 0 16.67 0 6.92 0c0.28,0.07 0.63,0.24 1.05,0.52 0.42,0.28 0.77,0.49 1.05,0.63l4.72 2.83c0.77,0.56 1.56,1.07 2.36,1.52 0.8,0.46 1.59,0.96 2.36,1.52 0.28,0.14 0.54,0.31 0.79,0.52 0.24,0.21 0.54,0.42 0.89,0.63zm-17.4 22.01c0.28,0.21 0.56,0.4 0.84,0.57 0.28,0.18 0.56,0.37 0.84,0.58l0.21 0.21 -5.98 0 -19.7 0 -8.17 0c0.63,0.42 1.24,0.86 1.83,1.31 0.59,0.45 1.17,0.96 1.73,1.52 1.33,1.33 2.24,2.83 2.72,4.51 0.63,1.89 0.84,3.84 0.63,5.87 -0.21,2.02 -0.8,3.91 -1.78,5.66 -1.05,2.03 -2.53,3.78 -4.45,5.24 -1.92,1.47 -4.11,2.24 -6.55,2.31 -0.56,0 -1.08,-0.04 -1.57,-0.11 -0.49,-0.07 -1.01,-0.21 -1.57,-0.42 -0.7,-0.21 -1.26,-0.45 -1.68,-0.73 -1.61,-0.77 -3.15,-1.61 -4.61,-2.52 -1.47,-0.91 -2.94,-1.85 -4.41,-2.83 -1.68,-1.05 -3.33,-2.15 -4.98,-3.3 -1.64,-1.15 -2.85,-2.67 -3.62,-4.56 -1.05,-2.37 -1.38,-4.89 -1,-7.55 0.39,-2.65 1.35,-5.03 2.89,-7.13 0.77,-0.98 1.62,-1.87 2.57,-2.67 0.94,-0.8 2.01,-1.48 3.2,-2.04 0.56,-0.28 1.17,-0.47 1.83,-0.58 0.66,-0.1 1.31,-0.19 1.94,-0.26l5.98 0 19.6 0 11.85 0c0.42,0.14 0.73,0.28 0.94,0.42 0.14,0.14 0.31,0.25 0.52,0.31 0.21,0.07 0.39,0.18 0.53,0.31l4.72 2.83c0.77,0.56 1.55,1.07 2.36,1.52 0.8,0.45 1.59,0.96 2.36,1.52zm-39.1 9.43c0.77,-2.52 0.94,-5 0.52,-7.44 -1.61,0.56 -3.06,1.45 -4.35,2.67 -1.29,1.22 -2.36,2.6 -3.2,4.14 -0.84,1.54 -1.43,3.18 -1.78,4.93 -0.35,1.74 -0.35,3.46 0,5.13 2.09,-0.77 3.91,-2.01 5.45,-3.72 1.54,-1.71 2.66,-3.61 3.35,-5.71zm59.12 -31.24l-5.03 0 -13.1 0 0 6.92 0 17.19 0 20.65 0 17.19 0 7.33c-0.42,-0.14 -0.77,-0.31 -1.05,-0.52 -0.26,-0.14 -0.52,-0.26 -0.77,-0.37 -0.24,-0.11 -0.33,-0.16 -0.26,-0.16 -0.77,-0.49 -1.54,-0.96 -2.34,-1.41 -0.81,-0.46 -1.57,-0.96 -2.34,-1.52 -0.77,-0.49 -1.54,-0.98 -2.34,-1.47 -0.78,-0.49 -1.57,-0.98 -2.34,-1.47 -0.35,-0.21 -0.65,-0.42 -0.93,-0.63 -0.63,-0.35 -0.94,-0.59 -0.94,-0.73l0 -6.81 0 -17.19 0 -20.65 0 -16.35 -4.82 0c-0.14,-0.07 -0.3,-0.14 -0.47,-0.21 -0.18,-0.07 -0.33,-0.14 -0.47,-0.21 -0.14,-0.14 -0.31,-0.24 -0.52,-0.31 -0.21,-0.07 -0.39,-0.17 -0.52,-0.31 -1.82,-0.98 -3.43,-1.96 -4.82,-2.93 -0.77,-0.49 -1.54,-0.98 -2.31,-1.47 -0.77,-0.49 -1.54,-0.98 -2.31,-1.47 -0.35,-0.21 -0.65,-0.42 -0.89,-0.63 -0.24,-0.21 -0.51,-0.39 -0.79,-0.53 -0.14,-0.14 -0.21,-0.21 -0.21,-0.21l4.93 0 19.33 0 12 0c0.42,0.14 0.73,0.28 0.94,0.42 0.14,0.14 0.31,0.24 0.53,0.31 0.21,0.07 0.38,0.17 0.52,0.31 0.77,0.49 1.56,0.96 2.36,1.42 0.8,0.45 1.59,0.96 2.36,1.52 0.77,0.49 1.56,0.96 2.36,1.41 0.8,0.46 1.59,0.96 2.36,1.52 0.28,0.21 0.56,0.4 0.84,0.58 0.28,0.17 0.56,0.37 0.84,0.57l0.21 0.21zm38.78 19.71c1.68,1.68 2.94,3.63 3.78,5.87 1.05,2.73 1.43,5.42 1.15,8.07 -0.14,2.31 -0.73,4.51 -1.78,6.61 -1.05,2.09 -2.44,3.94 -4.19,5.56 -1.82,1.61 -3.86,2.88 -6.13,3.82 -2.27,0.94 -4.63,1.45 -7.07,1.52 -2.52,0 -4.85,-0.42 -7.02,-1.26 -0.84,-0.35 -1.64,-0.72 -2.41,-1.1 -0.77,-0.38 -1.54,-0.78 -2.3,-1.2 -1.54,-0.91 -3.06,-1.81 -4.56,-2.72 -1.5,-0.91 -2.99,-1.85 -4.46,-2.83 -0.7,-0.49 -1.38,-0.94 -2.04,-1.36 -0.67,-0.42 -1.35,-0.87 -2.04,-1.36 -1.89,-1.47 -3.46,-3.23 -4.72,-5.29 -1.26,-2.06 -2.06,-4.28 -2.41,-6.66 -0.35,-2.31 -0.24,-4.59 0.31,-6.87 0.56,-2.27 1.54,-4.35 2.94,-6.24 1.4,-2.03 3.11,-3.7 5.13,-5.03 2.03,-1.33 4.23,-2.27 6.6,-2.83 2.45,-0.63 4.82,-0.73 7.13,-0.31 1.33,0.14 2.59,0.43 3.77,0.89 1.19,0.45 2.38,1 3.56,1.63 1.19,0.63 2.34,1.29 3.46,1.99 1.12,0.7 2.27,1.4 3.46,2.1 1.12,0.7 2.24,1.4 3.35,2.09 1.11,0.7 2.2,1.43 3.25,2.2 0.56,0.42 1.1,0.84 1.62,1.26 0.53,0.42 1.07,0.91 1.63,1.47zm-9.75 11.21c0.91,-2.24 1.38,-4.51 1.42,-6.81 0.03,-2.31 -0.37,-4.58 -1.21,-6.81 -0.21,-0.56 -0.43,-1.06 -0.68,-1.52 -0.24,-0.45 -0.5,-0.93 -0.78,-1.41 -3.15,-0.42 -6.24,-0.09 -9.28,1 -3.04,1.08 -5.65,2.81 -7.81,5.19 -1.61,1.74 -2.83,3.7 -3.67,5.87 -0.84,2.17 -1.26,4.41 -1.26,6.71 0,3.5 0.91,6.67 2.72,9.54 3.78,0.42 7.41,-0.17 10.9,-1.78 2.17,-0.98 4.09,-2.32 5.76,-4.04 1.68,-1.71 2.97,-3.69 3.88,-5.92zm32.81 -30.92l-6.19 0 -16.77 0 -20.76 0 -17.5 0 -7.33 0c-0.21,-0.07 -0.52,-0.24 -0.94,-0.52 -0.35,-0.21 -0.7,-0.38 -1.05,-0.52 -0.84,-0.56 -1.66,-1.06 -2.46,-1.52 -0.8,-0.45 -1.59,-0.93 -2.36,-1.41 -1.46,-0.91 -3,-1.92 -4.61,-3.04 -0.35,-0.14 -0.65,-0.31 -0.89,-0.52 -0.25,-0.21 -0.51,-0.42 -0.79,-0.63 0,0 -0.07,-0.07 -0.21,-0.21l6.08 0 16.87 0 20.65 0 17.5 0 7.33 0c0.35,0.07 0.67,0.24 0.94,0.52 0.21,0.14 0.4,0.24 0.57,0.31 0.18,0.07 0.37,0.17 0.58,0.31 0.77,0.42 1.56,0.87 2.36,1.37 0.8,0.49 1.59,0.98 2.36,1.46 0.77,0.56 1.56,1.07 2.36,1.52 0.8,0.46 1.59,0.96 2.36,1.52 0.63,0.35 1.19,0.74 1.68,1.15l0.21 0.21zm-0.42 0l-5.03 0 -13.1 0 0 6.92 0 17.19 0 20.65 0 17.19 0 7.33c-0.42,-0.14 -0.77,-0.31 -1.05,-0.52 -0.26,-0.14 -0.52,-0.26 -0.77,-0.37 -0.24,-0.11 -0.33,-0.16 -0.26,-0.16 -0.77,-0.49 -1.54,-0.96 -2.34,-1.41 -0.81,-0.46 -1.57,-0.96 -2.34,-1.52 -0.77,-0.49 -1.54,-0.98 -2.34,-1.47 -0.78,-0.49 -1.57,-0.98 -2.34,-1.47 -0.35,-0.21 -0.65,-0.42 -0.93,-0.63 -0.63,-0.35 -0.94,-0.59 -0.94,-0.73l0 -6.81 0 -17.19 0 -20.65 0 -16.35 -4.82 0c-0.14,-0.07 -0.3,-0.14 -0.47,-0.21 -0.18,-0.07 -0.33,-0.14 -0.47,-0.21 -0.14,-0.14 -0.31,-0.24 -0.52,-0.31 -0.21,-0.07 -0.39,-0.17 -0.52,-0.31 -1.82,-0.98 -3.43,-1.96 -4.82,-2.93 -0.77,-0.49 -1.54,-0.98 -2.31,-1.47 -0.77,-0.49 -1.54,-0.98 -2.31,-1.47 -0.35,-0.21 -0.65,-0.42 -0.89,-0.63 -0.24,-0.21 -0.51,-0.39 -0.79,-0.53 -0.14,-0.14 -0.21,-0.21 -0.21,-0.21l4.93 0 19.33 0 12 0c0.42,0.14 0.73,0.28 0.94,0.42 0.14,0.14 0.31,0.24 0.53,0.31 0.21,0.07 0.38,0.17 0.52,0.31 0.77,0.49 1.56,0.96 2.36,1.42 0.8,0.45 1.59,0.96 2.36,1.52 0.77,0.49 1.56,0.96 2.36,1.41 0.8,0.46 1.59,0.96 2.36,1.52 0.28,0.21 0.56,0.4 0.84,0.58 0.28,0.17 0.56,0.37 0.84,0.57l0.21 0.21zm-18.03 -25.99c0.91,0.77 1.63,1.68 2.15,2.72 0.52,1.05 0.79,2.17 0.79,3.35 0,2.03 -0.73,3.81 -2.2,5.35 -1.47,1.54 -3.25,2.31 -5.35,2.31 -0.91,0 -1.96,-0.18 -3.15,-0.53 -0.35,-0.14 -0.72,-0.33 -1.1,-0.57 -0.39,-0.24 -0.75,-0.47 -1.1,-0.68 -1.19,-0.63 -2.34,-1.29 -3.46,-1.99 -1.12,-0.7 -2.24,-1.43 -3.35,-2.2 -0.98,-0.7 -1.85,-1.45 -2.62,-2.25 -0.77,-0.8 -1.33,-1.8 -1.68,-2.99 -0.35,-1.19 -0.42,-2.36 -0.21,-3.51 0.21,-1.15 0.7,-2.22 1.47,-3.2 0.77,-0.91 1.66,-1.64 2.67,-2.2 1.01,-0.56 2.11,-0.84 3.3,-0.84 1.33,0 2.52,0.24 3.56,0.73 0.91,0.42 1.8,0.91 2.67,1.47 0.87,0.56 1.73,1.12 2.57,1.68 0.84,0.56 1.69,1.08 2.57,1.57 0.87,0.49 1.69,1.08 2.46,1.78zm-9.12 6.71c2.1,-1.54 3.15,-3.6 3.15,-6.19 0,-0.35 -0.02,-0.68 -0.05,-1 -0.04,-0.31 -0.09,-0.65 -0.16,-1 -1.05,0.21 -2.03,0.59 -2.94,1.15 -0.91,0.56 -1.64,1.33 -2.2,2.31 -1.12,1.89 -1.4,3.91 -0.84,6.08 1.05,-0.21 2.06,-0.67 3.04,-1.36zm49.37 75.15c0.91,0.77 1.63,1.7 2.15,2.78 0.52,1.08 0.79,2.22 0.79,3.41 0,2.03 -0.74,3.81 -2.2,5.35 -1.47,1.54 -3.25,2.31 -5.35,2.31 -1.05,0 -2.1,-0.21 -3.15,-0.63 -0.35,-0.14 -0.73,-0.31 -1.15,-0.52 -0.42,-0.21 -0.8,-0.42 -1.15,-0.63 -1.19,-0.63 -2.33,-1.29 -3.41,-1.99 -1.08,-0.7 -2.18,-1.43 -3.3,-2.2 -0.98,-0.7 -1.87,-1.45 -2.67,-2.25 -0.8,-0.8 -1.35,-1.8 -1.63,-2.99 -0.35,-1.19 -0.42,-2.36 -0.21,-3.51 0.21,-1.15 0.7,-2.22 1.47,-3.2 0.77,-0.91 1.66,-1.64 2.67,-2.2 1.02,-0.56 2.11,-0.84 3.3,-0.84 0.63,0 1.22,0.07 1.78,0.21 0.56,0.14 1.12,0.31 1.68,0.52 0.98,0.42 1.9,0.91 2.78,1.47 0.87,0.56 1.73,1.12 2.57,1.68 0.84,0.56 1.7,1.08 2.57,1.57 0.87,0.49 1.69,1.05 2.46,1.67zm-9.12 6.81c2.1,-1.54 3.15,-3.6 3.15,-6.19 0,-0.7 -0.11,-1.36 -0.31,-1.99 -1.05,0.21 -2.01,0.59 -2.88,1.15 -0.87,0.56 -1.59,1.33 -2.15,2.31 -1.12,1.89 -1.4,3.91 -0.84,6.08 1.19,-0.21 2.2,-0.67 3.04,-1.36z"/>
    <path class="fil0" d="M1688.65 291.65c0.91,0.77 1.63,1.7 2.15,2.78 0.52,1.08 0.79,2.22 0.79,3.41 0,2.03 -0.74,3.81 -2.2,5.35 -1.47,1.54 -3.25,2.31 -5.35,2.31 -1.05,0 -2.1,-0.21 -3.15,-0.63 -0.35,-0.14 -0.73,-0.31 -1.15,-0.52 -0.42,-0.21 -0.8,-0.42 -1.15,-0.63 -1.19,-0.63 -2.33,-1.29 -3.41,-1.99 -1.08,-0.7 -2.18,-1.43 -3.3,-2.2 -0.98,-0.7 -1.87,-1.45 -2.67,-2.25 -0.8,-0.8 -1.35,-1.8 -1.63,-2.99 -0.35,-1.19 -0.42,-2.36 -0.21,-3.51 0.21,-1.15 0.7,-2.22 1.47,-3.2 0.77,-0.91 1.66,-1.64 2.67,-2.2 1.02,-0.56 2.11,-0.84 3.3,-0.84 0.63,0 1.22,0.07 1.78,0.21 0.56,0.14 1.12,0.31 1.68,0.52 0.98,0.42 1.9,0.91 2.78,1.47 0.87,0.56 1.73,1.12 2.57,1.68 0.84,0.56 1.7,1.08 2.57,1.57 0.87,0.49 1.69,1.05 2.46,1.67zm-9.12 6.81c2.1,-1.54 3.15,-3.6 3.15,-6.19 0,-0.7 -0.11,-1.36 -0.31,-1.99 -1.05,0.21 -2.01,0.59 -2.88,1.15 -0.87,0.56 -1.59,1.33 -2.15,2.31 -1.12,1.89 -1.4,3.91 -0.84,6.08 1.19,-0.21 2.2,-0.67 3.04,-1.36zm47.69 -6.81c0.91,0.77 1.63,1.7 2.15,2.78 0.52,1.08 0.79,2.22 0.79,3.41 0,2.03 -0.74,3.81 -2.2,5.35 -1.47,1.54 -3.25,2.31 -5.35,2.31 -1.05,0 -2.1,-0.21 -3.15,-0.63 -0.35,-0.14 -0.73,-0.31 -1.15,-0.52 -0.42,-0.21 -0.8,-0.42 -1.15,-0.63 -1.19,-0.63 -2.33,-1.29 -3.41,-1.99 -1.08,-0.7 -2.18,-1.43 -3.3,-2.2 -0.98,-0.7 -1.87,-1.45 -2.67,-2.25 -0.8,-0.8 -1.35,-1.8 -1.63,-2.99 -0.35,-1.19 -0.42,-2.36 -0.21,-3.51 0.21,-1.15 0.7,-2.22 1.47,-3.2 0.77,-0.91 1.66,-1.64 2.67,-2.2 1.02,-0.56 2.11,-0.84 3.3,-0.84 0.63,0 1.22,0.07 1.78,0.21 0.56,0.14 1.12,0.31 1.68,0.52 0.98,0.42 1.9,0.91 2.78,1.47 0.87,0.56 1.73,1.12 2.57,1.68 0.84,0.56 1.7,1.08 2.57,1.57 0.87,0.49 1.69,1.05 2.46,1.67zm-9.12 6.81c2.1,-1.54 3.15,-3.6 3.15,-6.19 0,-0.7 -0.11,-1.36 -0.31,-1.99 -1.05,0.21 -2.01,0.59 -2.88,1.15 -0.87,0.56 -1.59,1.33 -2.15,2.31 -1.12,1.89 -1.4,3.91 -0.84,6.08 1.19,-0.21 2.2,-0.67 3.04,-1.36z"/>
   </g>
  </g>
 </g>
</svg>
